<?xml version="1.0" encoding="UTF-8"?>
<svg viewBox="0 0 150 150" xmlns="http://www.w3.org/2000/svg">
<path d="m89.72 147.53-39.252 2.467-29.159-0.617-8.4112-6.783-4.486-26.516-5.6075-59.815-0.56074-11.716h16.822l-19.065-8.0164v-19.733l8.4112-13.566h92.524l41.495 3.0832 7.29 9.8664-3.926 54.265-0.56 40.082-10.094 3.7 7.851 6.167v16.649l-10.094 10.483h-43.177z" fill="#663931"/>
<path d="m90 144.3-39.252 2.467-29.159-0.617-8.4112-6.783-4.486-26.516-5.6075-59.815-0.56075-11.716h16.822l-19.065-8.0165v-19.733l8.4112-13.566h92.523l41.495 3.0832 7.29 9.8664-3.925 54.265-0.561 40.082-10.093 3.7 7.85 6.166v16.65l-10.093 10.483h-43.178z" fill="#8F563B"/>
<path d="m6.2376 54.306c1.7843 0 15.266 1.9622 16.653 1.9622 1.3878 0 37.272 2.3982 37.272 2.3982s32.514 0.436 34.1 0.436h26.368c1.586 0 14.671-0.8721 14.671-0.8721s-18.041 2.6162-21.61 2.6162c-3.568 0-32.513 0.8721-35.685 0.8721-3.172 0-44.805-1.7441-46.986-1.7441s-23.989-2.3982-23.989-2.3982l-0.79303-3.2703z" fill="#784635"/>
<path d="m125.75 103.9s-10.514-1.85-12.197-2.62c-1.682-0.771-8.411-1.6961-8.411-1.6961l-10.934 1.8501-8.8318 2.158h16.121l16.542 0.925 7.711-0.617z" fill="#784635"/>
<path d="m16.542 85.56c1.4019-0.1541 38.271-4.3165 41.355-4.4707 3.0841-0.1541 49.907-10.329 49.907-10.329s17.783-3.1549 19.369-3.1549 11.102-0.436 11.102-0.436-20.222 3.4882-21.015 4.1423-48.572 10.901-52.537 11.773c-3.9651 0.8721-23.592 3.2703-27.161 3.2703-3.5685 0-21.02-0.7951-21.02-0.7951z" fill="#B0784F" opacity=".475"/>
<path d="m22.57 121.33c2.243-0.771 11.855-2.867 17.664-4.779 6.8388-2.251 13.402-5.424 20.187-7.863 6.0284-2.166 12.095-4.22 18.224-6.012 2.5963-0.759 7.8505-2.004 7.8505-2.004s-5.633 2.958-8.5514 4.162c-6.7805 2.799-14.043 4.082-20.748 7.092-3.7923 1.702-7.0198 4.841-10.935 6.166-7.6054 2.576-23.692 3.238-23.692 3.238z" fill="#B0784F" opacity=".532"/>
<path d="m21.503 134.97c1.2044 0 2.1808-1.073 2.1808-2.398 0-1.324-0.9764-2.398-2.1808-2.398s-2.1808 1.074-2.1808 2.398c0 1.325 0.9764 2.398 2.1808 2.398z" fill="#663931" opacity=".735"/>
<path d="m21.714 133.89c1.2044 0 2.1808-1.073 2.1808-2.398 0-1.324-0.9764-2.398-2.1808-2.398s-2.1808 1.074-2.1808 2.398c0 1.325 0.9764 2.398 2.1808 2.398z" fill="#B0784F"/>
<path d="m131.69 135.59c1.204 0 2.181-1.074 2.181-2.398 0-1.325-0.977-2.398-2.181-2.398s-2.181 1.073-2.181 2.398c0 1.324 0.977 2.398 2.181 2.398z" fill="#663931" opacity=".735"/>
<path d="m131.9 134.51c1.205 0 2.181-1.074 2.181-2.398 0-1.325-0.976-2.398-2.181-2.398-1.204 0-2.18 1.073-2.18 2.398 0 1.324 0.976 2.398 2.18 2.398z" fill="#B0784F"/>
<path d="m140.1 17.193c1.205 0 2.181-1.0737 2.181-2.3982s-0.976-2.3982-2.181-2.3982c-1.204 0-2.181 1.0737-2.181 2.3982s0.977 2.3982 2.181 2.3982z" fill="#663931" opacity=".735"/>
<path d="m140.31 16.114c1.204 0 2.18-1.0737 2.18-2.3982s-0.976-2.3982-2.18-2.3982c-1.205 0-2.181 1.0737-2.181 2.3982s0.976 2.3982 2.181 2.3982z" fill="#B0784F"/>
<path d="m12.812 15.652c1.2044 0 2.1808-1.0737 2.1808-2.3982s-0.9764-2.3982-2.1808-2.3982-2.1808 1.0737-2.1808 2.3982 0.9764 2.3982 2.1808 2.3982z" fill="#663931" opacity=".735"/>
<path d="m13.022 14.573c1.2044 0 2.1808-1.0737 2.1808-2.3982s-0.9764-2.3982-2.1808-2.3982-2.1808 1.0737-2.1808 2.3982 0.9764 2.3982 2.1808 2.3982z" fill="#B0784F"/>
</svg>
