<?xml version="1.0" encoding="UTF-8"?>
<svg viewBox="0 0 150 100" xmlns="http://www.w3.org/2000/svg">
<path d="m89.72 98.356-39.252 1.6444-29.159-0.4111-8.4112-4.5221-4.486-17.677-5.6075-39.877-0.56074-7.8108h16.822l-19.065-5.3444v-13.155l8.4112-9.0442h92.524l41.495 2.0555 7.29 6.5776-3.926 36.177-0.56 26.722-10.094 2.4666 7.851 4.111v11.1l-10.094 6.9887h-43.177z" fill="#663931"/>
<path d="m90 96.197-39.252 1.6444-29.159-0.4111-8.4112-4.5221-4.486-17.677-5.6075-39.877-0.56075-7.8109h16.822l-19.065-5.3443v-13.155l8.4112-9.0442h92.523l41.495 2.0555 7.29 6.5776-3.925 36.177-0.561 26.721-10.093 2.4667 7.85 4.1109v11.1l-10.093 6.9886h-43.178z" fill="#8F563B"/>
<path d="m6.2376 36.204c1.7843 0 15.266 1.3081 16.653 1.3081s37.272 1.5988 37.272 1.5988 32.514 0.2907 34.1 0.2907h26.368c1.586 0 14.671-0.5813 14.671-0.5813s-18.041 1.7441-21.61 1.7441c-3.568 0-32.513 0.5814-35.685 0.5814s-44.806-1.1628-46.986-1.1628-23.989-1.5988-23.989-1.5988l-0.79303-2.1802z" fill="#784635"/>
<path d="m125.75 69.27s-10.514-1.2333-12.197-1.7472c-1.682-0.5139-8.411-1.1305-8.411-1.1305l-10.934 1.2333-8.8318 1.4388h16.121l16.542 0.6167 7.711-0.4111z" fill="#784635"/>
<path d="m16.542 57.04c1.4019-0.1028 38.271-2.8777 41.355-2.9805s49.907-6.8859 49.907-6.8859 17.783-2.1033 19.369-2.1033 11.102-0.2907 11.102-0.2907-20.222 2.3255-21.015 2.7616c-0.793 0.436-48.572 7.2673-52.537 7.8486-3.9651 0.5814-23.592 2.1802-27.161 2.1802-3.5685 0-21.02-0.53-21.02-0.53z" fill="#B0784F" opacity=".475"/>
<path d="m22.57 80.884c2.243-0.5139 11.855-1.9115 17.664-3.1861 6.8388-1.5005 13.402-3.6155 20.187-5.2415 6.0284-1.4446 12.095-2.8138 18.224-4.0082 2.5963-0.5059 7.8505-1.3361 7.8505-1.3361s-5.633 1.972-8.5514 2.775c-6.7805 1.8655-14.043 2.7208-20.748 4.7276-3.7923 1.135-7.0198 3.2272-10.935 4.111-7.6054 1.7171-23.692 2.1583-23.692 2.1583z" fill="#B0784F" opacity=".532"/>
<path d="m21.503 89.982c1.2044 0 2.1808-0.7158 2.1808-1.5988s-0.9764-1.5988-2.1808-1.5988-2.1808 0.7158-2.1808 1.5988 0.9764 1.5988 2.1808 1.5988z" fill="#663931" opacity=".735"/>
<path d="m21.714 89.263c1.2044 0 2.1808-0.7158 2.1808-1.5988s-0.9764-1.5988-2.1808-1.5988-2.1808 0.7158-2.1808 1.5988 0.9764 1.5988 2.1808 1.5988z" fill="#B0784F"/>
<path d="m131.69 90.393c1.204 0 2.181-0.7158 2.181-1.5988s-0.977-1.5988-2.181-1.5988-2.181 0.7158-2.181 1.5988 0.977 1.5988 2.181 1.5988z" fill="#663931" opacity=".735"/>
<path d="m131.9 89.674c1.205 0 2.181-0.7158 2.181-1.5988s-0.976-1.5988-2.181-1.5988c-1.204 0-2.18 0.7158-2.18 1.5988s0.976 1.5988 2.18 1.5988z" fill="#B0784F"/>
<path d="m140.1 11.462c1.205 0 2.181-0.7158 2.181-1.5988 0-0.88299-0.976-1.5988-2.181-1.5988-1.204 0-2.181 0.71581-2.181 1.5988 0 0.88298 0.977 1.5988 2.181 1.5988z" fill="#663931" opacity=".735"/>
<path d="m140.31 10.743c1.204 0 2.18-0.7158 2.18-1.5988s-0.976-1.5988-2.18-1.5988c-1.205 0-2.181 0.71581-2.181 1.5988s0.976 1.5988 2.181 1.5988z" fill="#B0784F"/>
<path d="m12.812 10.434c1.2044 0 2.1808-0.71586 2.1808-1.5988s-0.9764-1.5988-2.1808-1.5988c-1.2045 0-2.1808 0.71581-2.1808 1.5988s0.9763 1.5988 2.1808 1.5988z" fill="#663931" opacity=".735"/>
<path d="m13.022 9.7151c1.2044 0 2.1808-0.71581 2.1808-1.5988 0-0.883-0.9764-1.5988-2.1808-1.5988s-2.1808 0.7158-2.1808 1.5988c0 0.88299 0.9764 1.5988 2.1808 1.5988z" fill="#B0784F"/>
</svg>
