<?xml version="1.0" encoding="UTF-8"?>
<svg fill="none" viewBox="0 0 200 80" xmlns="http://www.w3.org/2000/svg">
<path d="m195.42 65.459-2.423 12.895-22.072 1.6462-77.793-1.3718-82.907 0.2744-4.3069-2.1949-4.0377-35.942-1.8842-23.595 3.4993-2.1949 4.8452-2.7436 61.104 3.5667 32.302-3.018s22.611-4.6642 24.226-4.9385 39.031-4.9385 39.031-4.9385l27.187 1.6462 4.307 4.9385 3.499 3.2923-0.538 14.816-0.808 36.765-3.23 1.0974z" fill="#663931"/>
<path d="m192.1 60.096-2.331 12.388-21.241 1.5815-74.861-1.3179-79.783 0.2636-4.1446-2.1087-3.8855-34.529-1.8132-22.668 3.3675-2.1086 4.6626-2.6358 58.801 3.4266 31.084-2.8994s21.759-4.4809 23.313-4.7444c1.554-0.26358 37.56-4.7444 37.56-4.7444l26.163 1.5815 4.144 4.7444 3.368 3.163-0.518 14.233-0.777 35.32-3.109 1.0543z" fill="#8F563B"/>
<path d="m17.093 17.308c-0.8095 0.2522-1.7137 0.6346-2.1535 1.3718-1.4498 2.4303-0.6868 5.661-0.6729 8.5052 0.0285 5.8311 0.8254 11.638 1.5497 17.422 0.6103 4.873 1.09 9.8004 2.3534 14.541 0.7224 2.7109 0.8076 6.1202 2.9665 7.8663 4.0077 3.2414 10.099 1.7891 15.203 2.1479 18.261 1.2838 36.61 0.2854 54.913 0 13.194-0.2058 26.375-0.9752 39.569-1.2347 16.866-0.3316 33.627 1.7709 50.606-0.4115 5.041-0.6479 6.08-8.5806 7.402-13.581 1.214-4.5928 0.108-9.5132 0.269-14.267 0.155-4.5757 0.673-13.718 0.673-13.718l-8.614-3.4295 8.076-1.6462v-6.9962s-1.75-1.6462-5.249-1.0975c-3.5 0.5487-14.709 1.1226-22.073 1.509-8.742 0.4587-17.496 0.6659-26.245 0.9603-7.446 0.2505-22.342 0.6859-22.342 0.6859l-10.363 5.2129 4.038-4.6642s-17.673 0.7548-26.515 0.8231c-14.672 0.1133-29.34-0.8311-44.011-0.6859-6.4638 0.064-13.199-1.2401-19.381 0.6859z" stroke="#663931" stroke-width="2.5134"/>
<path d="m62.558 44.021c-0.4759 0-10.469-0.097-10.469-0.097l8.8507-2.1341 14.275 0.9701-12.658 1.261z" fill="#663931"/>
<path d="m175.24 57.99s-4.758 2.328-6.281 2.522-8.184 0-8.946 0c-0.761 0 3.046 1.164 3.046 1.164s7.423 0.194 8.375 0.194c0.951 0 8.945-3.298 8.945-3.298l4.569-1.9401-9.708 1.3581z" fill="#663931"/>
<path d="m188.94 30.053c-0.952 0.194-14.276 1.1641-15.418 1.1641s-25.505-0.776-32.548-0.776c-7.042 0-36.545-2.9101-39.971-3.6861-3.4257-0.776-28.17-3.8801-32.167-3.2981s-25.315 4.8501-30.835 6.0141c-5.5198 1.1641-17.511 5.4321-18.463 5.8201s-3.9971 1.1641-3.9971 1.1641 19.795-3.8801 21.318-4.4621 27.218-5.6261 29.312-6.0141c2.0937-0.3881 17.892 0 17.892 0s17.511 2.716 18.653 2.91 37.116 4.2681 38.068 4.2681 24.934 2.522 29.883 2.328 18.273-0.97 18.273-0.97v-4.4621z" fill="#663931" opacity=".429"/>
<path d="m18.971 57.02c1.5227 0.194 25.125 1.1641 25.125 1.1641s29.122-0.194 30.074-0.194 33.69-5.6261 34.832-5.6261 38.067-2.7161 38.067-2.7161l8.946 0.194s-10.278 3.4921-13.514 3.4921-43.968 3.2981-47.204 4.2681c-3.2357 0.97-19.986 4.268-30.264 4.85-10.278 0.5821-46.252-0.388-46.252-0.388l-1.3323-4.268 1.5227-0.7761z" fill="#663931" opacity=".553"/>
<path d="m156.39 38.983s-13.594 3.1552-19.381 3.4295c-5.787 0.2744-24.361 0.4116-28.802 0.2744-4.442-0.1372-26.649-3.2924-26.649-3.2924s-3.4993 0.8232-2.6918 0.8232 11.171 2.7436 14.401 3.4295c3.2301 0.6859 24.496 2.8808 27.86 2.7436 3.364-0.1372 38.088-4.1154 39.838-4.1154s13.19-0.9603 13.19-0.9603l-17.766-2.3321z" fill="#D9A066" opacity=".447"/>
<path d="m22.777 50.423c2.2841-0.194 15.417-3.104 17.702-2.134s17.702 0.97 20.556 1.94c2.8551 0.97 19.224 2.7161 19.224 2.7161s-3.4261 1.164-8.1845 0.97c-4.7585-0.194-21.318-1.164-25.125-1.552s-15.227-0.9701-16.94-0.9701-7.2329-0.97-7.2329-0.97z" fill="#D9A066" opacity=".447"/>
</svg>
