<?xml version="1.0" encoding="UTF-8"?>
<svg viewBox="0 0 29 23" xmlns="http://www.w3.org/2000/svg">
<path d="m13.331 18.451s0.9651 0.6044 1.2212 0.8169c0.2561 0.2123 1.1996 1.7959 1.5687 2.0011 0.3686 0.2055 0.7403 0.7851 1.3916 0.9309 0.6512 0.1458 1.0749 0.098 1.0749 0.098s-1.1948-1.0889-1.3657-1.2861c-0.1711-0.1971-0.5174-1.2568-0.8022-1.5716-0.2852-0.3145-1.1954-1.172-1.4228-1.3656-0.2281-0.1933-1.023-0.7253-1.023-0.7253l-0.7304 0.6706 0.0877 0.4311z"/>
<path d="m1.4978 18.283c0.37133-0.1415 0.48756-0.7411 0.25961-1.3393s-0.71377-0.9685-1.0851-0.827c-0.37133 0.1415-0.48756 0.7412-0.25961 1.3394s0.71377 0.9684 1.0851 0.8269z" fill="#AC3232"/>
<path d="m3.1517 10.275c-0.57737-0.52758 0.16035-1.5741 0.43902-2.3049 0.15201-0.39866 0.48026-0.70994 0.65854-1.0976 0.26589-0.57811 0.20829-1.3124 0.60367-1.811 0.347-0.43758 1.0004-0.51753 1.4269-0.87807 0.44551-0.37663 0.67016-0.9889 1.1525-1.3171 0.67449-0.45897 1.5337-0.55699 2.3049-0.8232 0.76552-0.26426 1.5019-0.66282 2.3049-0.76829 0.5996-0.07877 1.2074 0.14796 1.811 0.10975 0.6875-0.04351 1.3418-0.39507 2.0305-0.38415 0.6746 0.01058 1.3177 0.28999 1.9757 0.43902 0.7141 0.16173 1.4603 0.22247 2.1403 0.49392 0.7692 0.30709 1.4577 0.79303 2.1402 1.2622 0.7511 0.51626 1.3942 1.1779 2.1403 1.7012 0.4573 0.32065 1.0249 0.49042 1.4269 0.87807 0.5223 0.50361 0.847 1.1813 1.2073 1.811 0.3332 0.5823 0.6407 1.1836 0.8781 1.811 0.2891 0.76376 0.5156 1.5558 0.6586 2.3599 0.0803 0.4517 0.2486 0.9346 0.1097 1.3719-0.0432 0.1362-0.2257 0.195-0.2744 0.3293-0.1992 0.5504 0.1415 1.1881 0 1.7561-0.1602 0.6432-0.7461 1.1202-0.9329 1.7561-0.0621 0.2114-0.0384 0.439-0.0549 0.6586-0.0204 0.2743 0.1369 0.6261-0.0549 0.8232-0.4101 0.4213-1.1682 0.1609-1.7562 0.1646-0.679 0.0042-1.3531-0.2122-2.0305-0.1646-0.7482 0.0526-1.5272 0.8351-2.1952 0.4939-0.124-0.0634-0.0347-0.3336-0.1646-0.3841-0.3738-0.1457-0.6964 0.4982-1.0976 0.4939-0.4254-0.0046-0.729-0.5065-1.1524-0.5488-0.1501-0.0151-0.2887 0.1215-0.4391 0.1097-0.5148-0.04-0.9142-0.5409-1.4268-0.6036-0.3493-0.0428-0.7035 0.2581-1.0427 0.1646-0.2755-0.076-0.3832-0.4723-0.6586-0.5488-0.2318-0.0644-0.4744 0.0822-0.7134 0.1098-0.2369 0.0272-0.5045 0.1699-0.7134 0.0548-0.3082-0.1698-0.2118-0.7226-0.4939-0.9329-0.1496-0.1115-0.363-0.0934-0.5488-0.1098-0.8385-0.0738-1.7803-0.3383-2.5245 0.055-0.1391 0.0735-0.1177 0.3689-0.2744 0.3841-0.45074 0.0438-0.71524-0.5712-0.98777-0.9329-0.3594-0.4771-0.50264-1.0876-0.8232-1.5915-0.32205-0.5063-0.68374-0.9923-1.0976-1.4269-0.33116-0.3477-0.73323-0.6202-1.0976-0.9329-0.8266-0.7095-1.406-1.9048-2.4696-2.1403-0.13001-0.0287-0.28583 0.1996-0.38411 0.1097z" fill="#AC3232" stroke="#000" stroke-width=".37795"/>
<path d="m9.847 9.383c-0.19465-0.17344-0.5537-0.13943-0.78205-0.01361-0.23906 0.13172-0.37631 0.43121-0.4253 0.69977-0.05344 0.2929 0.02418 0.6155 0.16463 0.878 0.12665 0.2367 0.3393 0.4364 0.57625 0.5625 0.31748 0.169 0.7065 0.3027 1.0564 0.2195 0.2217-0.0526 0.4195-0.229 0.5351-0.4253 0.1552-0.2637 0.2157-0.6064 0.1509-0.9055-0.0712-0.3285-0.2874-0.64379-0.5625-0.83689-0.2006-0.14083-0.5501 0.00443-0.71343-0.17847 3e-5 3e-5 -3e-5 -3e-5 0 0z" fill="#45283C"/>
<path d="m13.988 7.4935c-0.0839-0.24684-0.413-0.39425-0.6737-0.39735-0.2729-0.00324-0.54 0.18967-0.715 0.39914-0.1909 0.22855-0.2823 0.54744-0.2895 0.84511-0.0065 0.26835 0.08 0.54696 0.224 0.77349 0.1929 0.30353 0.4655 0.61163 0.8109 0.71174 0.2189 0.06342 0.4779 0.00756 0.6753-0.10628 0.265-0.15289 0.4866-0.42131 0.5776-0.71345 0.1-0.32092 0.0673-0.70181-0.0769-1.0054-0.1051-0.2214-0.4808-0.2673-0.5327-0.50696v0z" fill="#45283C"/>
<path d="m17.159 7.0236c0.0956-0.27878 0.471-0.44527 0.7683-0.44877 0.3112-0.00366 0.6158 0.21419 0.8153 0.45079 0.2177 0.25814 0.322 0.61832 0.3302 0.95451 0.0072 0.30308-0.0913 0.61773-0.2555 0.87357-0.22 0.34281-0.5308 0.6908-0.9247 0.80388-0.2496 0.07162-0.5449 0.00869-0.77-0.12004-0.3022-0.17269-0.5549-0.47583-0.6588-0.80578-0.114-0.36246-0.0767-0.79264 0.0877-1.1356 0.1199-0.25006 0.5483-0.30192 0.6075-0.57259v0z" fill="#45283C"/>
<path d="m21.181 8.0695c0.0838-0.22965 0.413-0.36677 0.6737-0.36964 0.2729-0.00302 0.5399 0.17644 0.7149 0.37131 0.1909 0.21264 0.2824 0.50931 0.2896 0.78623 0.0064 0.24964-0.0801 0.50882-0.224 0.71956-0.193 0.28237-0.4655 0.56903-0.811 0.66213-0.2188 0.059-0.4778 0.0072-0.6752-0.0989-0.265-0.14222-0.4866-0.39188-0.5777-0.66366-0.1-0.29855-0.0673-0.6529 0.0769-0.93537 0.1052-0.20598 0.4808-0.2487 0.5328-0.47166 0-4e-5 -1e-4 4e-5 0 0z" fill="#45283C"/>
<path d="m25.622 11.687c0.1841-0.0779 0.2823-0.3509 0.2736-0.5626-9e-3 -0.2217-0.1669-0.4309-0.3335-0.5646-0.1817-0.146-0.4279-0.2076-0.6545-0.2017-0.2042 0.0053-0.4123 0.0865-0.5784 0.2124-0.2226 0.1686-0.4453 0.402-0.5068 0.6863-0.039 0.1802 0.014 0.3883 0.1092 0.544 0.1274 0.2091 0.3408 0.3783 0.5667 0.4407 0.2481 0.0686 0.5362 0.0269 0.7609-0.102 0.1638-0.0941 0.1829-0.4009 0.3628-0.4525 1e-4 0 0 0 0 0z" fill="#45283C"/>
<path d="m27.506 13.832c0.1356-0.0699 0.208-0.3151 0.2016-0.5052-0.0068-0.1991-0.123-0.3869-0.2458-0.507-0.1339-0.1311-0.3154-0.1865-0.4824-0.1812-0.1505 0.0049-0.3038 0.0778-0.4262 0.1907-0.1641 0.1514-0.3282 0.361-0.3735 0.6164-0.0288 0.1618 0.0102 0.3486 0.0805 0.4884 0.0939 0.1878 0.2511 0.3397 0.4175 0.3958 0.1829 0.0616 0.3953 0.0242 0.5609-0.0916 0.1207-0.0845 0.1347-0.36 0.2674-0.4063 0 0-1e-4 0 0 0z" fill="#45283C"/>
<path d="m27.644 16.096c0.0968-0.0498 0.1484-0.2246 0.1438-0.3602-0.0049-0.1419-0.0877-0.2758-0.1752-0.3615-0.0956-0.0934-0.225-0.1329-0.344-0.1291-0.1073 0.0035-0.2167 0.0554-0.3039 0.136-0.117 0.1079-0.234 0.2574-0.2663 0.4394-0.0204 0.1154 0.0072 0.2486 0.0574 0.3483 0.0669 0.1339 0.179 0.2422 0.2977 0.2822 0.1304 0.0439 0.2818 0.0174 0.3999-0.0654 0.0861-0.0602 0.096-0.2567 0.1906-0.2897z" fill="#45283C"/>
<path d="m11.406 13.289c-0.1057-0.0946-0.2911-5e-3 -0.4217 0.0499-0.1465 0.0616-0.3292 0.1456-0.3721 0.2994-0.1046 0.3748 0.1495 0.7983 0.3969 1.0978 0.2393 0.2896 0.5931 0.572 0.9675 0.5738 0.2482 0.0012 0.5653-0.1378 0.645-0.3742 0.1524-0.452-0.2196-0.9757-0.5457-1.3224-0.1703-0.181-0.538-0.1133-0.6699-0.3243z" fill="#45283C"/>
<path d="m15.047 12.102c-0.0401-0.1361-0.245-0.1574-0.3849-0.1794-0.157-0.0246-0.3565-0.0495-0.4739 0.0587-0.2863 0.2638-0.293 0.7576-0.2402 1.1424 0.0511 0.3722 0.2033 0.7986 0.5207 0.9971 0.2104 0.1317 0.5532 0.1803 0.7454 0.0212 0.3675-0.3041 0.3267-0.9453 0.2318-1.4117-0.0495-0.2435-0.3978-0.3794-0.3989-0.6283v0z" fill="#45283C"/>
<path d="m18.205 12.118c-0.0019-0.1419-0.1933-0.2177-0.322-0.2767-0.1446-0.0661-0.33-0.1439-0.4723-0.0715-0.3468 0.1767-0.4867 0.6503-0.5398 1.0351-0.0513 0.3721-0.02 0.8237 0.2321 1.1006 0.167 0.1836 0.4839 0.323 0.7119 0.2218 0.436-0.1936 0.5699-0.8219 0.6045-1.2966 0.0182-0.2479-0.2805-0.4728-0.2144-0.7127 1e-4 0 0 0 0 0z" fill="#45283C"/>
<path d="m21.493 13.038c0.0578-0.1296-0.0842-0.2787-0.1762-0.3864-0.1035-0.1206-0.2391-0.2691-0.3986-0.263-0.389 0.0148-0.7147 0.3859-0.9245 0.7129-0.2028 0.3162-0.3639 0.7393-0.2513 1.0964 0.0745 0.2367 0.3037 0.4963 0.5531 0.5001 0.477 0.0072 0.8622-0.5068 1.0929-0.9231 0.1205-0.2174-0.0562-0.547 0.1046-0.7369z" fill="#45283C"/>
<path d="m24.019 14.078c0.0508-0.1019-0.0739-0.2191-0.1547-0.3038-0.0909-0.0948-0.2099-0.2115-0.35-0.2067-0.3416 0.0117-0.6276 0.3033-0.8118 0.5604-0.1781 0.2486-0.3195 0.5812-0.2207 0.8619 0.0655 0.1862 0.2667 0.3902 0.4858 0.3932 0.4188 0.0057 0.7571-0.3985 0.9596-0.7257 0.1059-0.1709-0.0493-0.43 0.0918-0.5793z" fill="#45283C"/>
<path d="m25.829 15.992c0.0535-0.0896-0.0777-0.1927-0.1627-0.267-0.0956-0.0834-0.2209-0.186-0.3683-0.1818-0.3593 0.0102-0.6602 0.2667-0.854 0.4926-0.1873 0.2186-0.3362 0.511-0.2322 0.7578 0.0689 0.1636 0.2806 0.343 0.511 0.3456 0.4406 0.0049 0.7966-0.3503 1.0097-0.638 0.1113-0.1502-0.052-0.3779 0.0965-0.5092z" fill="#45283C"/>
<path d="m26.656 17.461c0.0367-0.0542-0.0534-0.1165-0.1117-0.1615-0.0657-0.0504-0.1517-0.1124-0.2529-0.1099-0.2467 6e-3 -0.4534 0.1613-0.5864 0.2979-0.1287 0.1321-0.2309 0.3089-0.1595 0.4581 0.0473 0.0989 0.1927 0.2073 0.3509 0.209 0.3025 0.0029 0.547-0.2118 0.6933-0.3858 0.0765-0.0908-0.0356-0.2285 0.0663-0.3078z" fill="#45283C"/>
<path d="m13.222 1.549c0.0549 0.10976 0.8232 1.9208 0.9604 2.1952s1.0976 3.2104 1.1525 3.5671c0.0549 0.35672 0.4115 2.744 0.4115 3.0458 0 0.3019 0.1098 1.9208 0.1098 1.9208s0.5488-1.7836 0.4939-2.0854c-0.0549-0.30184-0.6585-4.9391-0.7134-5.2684-0.0549-0.32927-1.125-3.2928-1.125-3.2928s-0.096-0.13717-0.1509-0.15089c-0.055-0.01361-0.3568 0.08229-0.3568 0.08229s-0.2744 0.08235-0.343 0.05491c-0.0686-0.02722-0.439-0.0686-0.439-0.0686z" fill="#fff" opacity=".212"/>
<path d="m19.39 2.0922c0.0159 0.11312 0.1793 1.9425 0.2194 2.2253 0.04 0.28282 0.094 3.1714 0.0549 3.5056-0.0391 0.33427-0.3086 2.5681-0.376 2.8384-0.0674 0.2702-0.3479 1.7494-0.3479 1.7494s0.8038-1.4484 0.8306-1.7335c0.0269-0.2851 0.6164-4.6004 0.6493-4.91 0.0329-0.30965-0.0959-3.2525-0.0959-3.2525s-0.0403-0.14882-0.0778-0.17592c-0.0374-0.02684-0.282-0.02307-0.282-0.02307s-0.2211-5.4e-4 -0.2656-0.04369c-0.0446-0.04289-0.309-0.17999-0.309-0.17999z" fill="#fff" opacity=".212"/>
<path d="m23.853 5.4823c-0.0041 0.08096-0.133 1.3775-0.1434 1.58-0.0106 0.2025-0.3438 2.2213-0.4113 2.4486-0.0675 0.2273-0.5238 1.7453-0.6012 1.9241s-0.4445 1.1698-0.4445 1.1698 0.6969-0.8968 0.7503-1.0916 0.9788-3.1175 1.0392-3.3285c0.0604-0.21105 0.353-2.2781 0.353-2.2781s-0.0068-0.10923-0.0273-0.13331c-0.0204-0.02381-0.1768-0.05525-0.1768-0.05525s-0.1409-0.031-0.1639-0.06736c-0.0226-0.0359-0.1741-0.16831-0.1741-0.16831z" fill="#fff" opacity=".212"/>
<path d="m27.336 9.6382c-0.0196 0.05439-0.3776 0.91175-0.427 1.0476-0.0492 0.1359-0.6972 1.4433-0.7906 1.5842-0.0934 0.141-0.7206 1.0811-0.8106 1.1869-0.09 0.1059-0.5467 0.7052-0.5467 0.7052s0.6618-0.4663 0.7387-0.588c0.077-0.1218 1.3167-1.9222 1.4019-2.0536 0.0852-0.1313 0.7153-1.4801 0.7153-1.4801s0.0181-0.07584 9e-3 -0.09651c-0.0087-0.02079-0.109-0.07454-0.109-0.07454s-0.0895-0.05062-0.0976-0.0801c-0.0079-0.02948-0.0834-0.1511-0.0834-0.1511z" fill="#fff" opacity=".212"/>
<path d="m3.1517 10.275c-0.471 0.2032-0.53636 0.8746-0.79575 1.3171-0.50543 0.8623-1.2954 1.6248-1.4817 2.6068-0.048226 0.2542-0.062107 0.5749 0.10975 0.7683 0.40234 0.4527 1.2367 0.155 1.7561 0.4665 0.47177 0.2829 0.78055 0.7784 1.125 1.2073 0.31298 0.3897 0.44661 0.9405 0.85061 1.2348 0.07718 0.0562 0.18199 0.0582 0.2744 0.0823 0.408 0.1064 0.81499 0.3136 1.2348 0.2744 0.69356-0.0648 1.2452-0.6532 1.9208-0.8232 0.30278-0.0761 0.62314-0.1209 0.93294-0.0823 0.41336 0.0514 0.80545 0.2291 1.1799 0.4116 0.4105 0.2001 0.7103 0.6266 1.1525 0.7409 0.6745 0.1742 1.5201 0.2699 2.0854-0.1372 0.1764-0.1271 0.2451-0.3863 0.2469-0.6037 0.0031-0.3586-0.1001-0.7916-0.3902-1.0025-0.7329-0.5328-1.9351-0.3983-2.7138-0.1566-0.2428 0.0754-0.2792 0.1786-0.71035 0.1755-0.18655-0.0014-0.48673-5e-3 -0.6167-0.1389-0.53231-0.548-0.31459-0.2835-0.5629-0.661-0.40337-0.6134-0.67447-1.3138-1.125-1.8934-0.66684-0.8578-1.5543-1.5193-2.3049-2.3049-0.39361-0.4119-0.65858-0.9782-1.1525-1.2622-0.30014-0.1726-0.69731-0.3567-1.0152-0.2196z" fill="#AC3232" stroke="#000" stroke-width=".37795"/>
<path d="m1.3407 15.241s-0.54879 0.3293-0.57622 0.4939c-0.027213 0.1647-0.27442 0.9604-0.24698 1.2074 0.027212 0.2469 0.46647 1.811 0.52135 1.9482 0.05492 0.1372 0.30186 0.878 0.98785 1.0427 0.68598 0.1646 1.2622 0.5762 1.8384 0.3841s0.9604-1.5091 0.9604-1.6189 0.30182-0.4665 0.16462-0.6311c-0.1372-0.1647-1.2073-1.4543-1.2073-1.4543s-0.90551-1.125-1.0702-1.2074c-0.16463-0.0822-1.372-0.1646-1.372-0.1646z"/>
<path d="m6.0317 18.34s0.01928 0.6403 0 0.8343c-0.01927 0.194-0.46567 1.2806-0.44626 1.5134 0.01928 0.2328-0.13583 0.6403 0 0.9507 0.1358 0.3105 0.29104 0.4463 0.29104 0.4463s0.13578-0.9507 0.1746-1.106c0.03882-0.1552 0.42686-0.7761 0.48507-1.0283s0.17462-0.9895 0.19401-1.1641c0.01927-0.1747 0.01926-0.718 0.01926-0.718l-0.54326 0.0389-0.17446 0.2328z"/>
<path d="m8.3617 17.64s0.2128 0.6042 0.25335 0.795c0.04056 0.1907-0.05483 1.3615 0.0344 1.5774 0.08905 0.216 0.065 0.6513 0.28868 0.9059 0.22367 0.2545 0.4128 0.3368 0.4128 0.3368s-0.1593-0.9471-0.16943-1.1068c-0.01021-0.1597 0.17101-0.869 0.14988-1.127-0.02116-0.258-0.13411-0.9959-0.16865-1.1681-0.03478-0.1723-0.19963-0.6899-0.19963-0.6899l-0.50584 0.2019-0.09556 0.2748z"/>
<path d="m11.99 18.844s0.196 0.5068 0.2334 0.6668c0.0374 0.1599-0.0505 1.142 0.0318 1.3231 0.082 0.1812 0.0599 0.5463 0.266 0.7598 0.2062 0.2135 0.3804 0.2825 0.3804 0.2825s-0.1468-0.7944-0.1561-0.9283c-0.0095-0.1339 0.1576-0.729 0.1381-0.9454-0.0196-0.2163-0.1236-0.8352-0.1554-0.9797-0.0321-0.1445-0.184-0.5787-0.184-0.5787l-0.4661 0.1694-0.0881 0.2305z"/>
<path d="m6.3313 4.4259c0.07891 0.06044 1.2755 1.1 1.4727 1.251 0.19726 0.15111 1.9186 1.9244 2.0804 2.159 0.16182 0.23452 1.2363 1.8074 1.3376 2.0202 0.1013 0.21275 0.7288 1.3202 0.7288 1.3202s-0.1781-1.4269-0.3214-1.6227c-0.1434-0.19581-2.1624-3.2787-2.315-3.4939-0.15258-0.21521-1.9672-1.974-1.9672-1.974s-0.11962-0.0671-0.16629-0.05981c-0.04664 0.00719-0.24571 0.16817-0.24571 0.16817s-0.18264 0.14276-0.24444 0.14461c-0.06168 2e-3 -0.35949 0.0872-0.35949 0.0872z" fill="#fff" opacity=".212"/>
<path d="m3.4963 18.322c0.37133-0.1415 0.48756-0.7412 0.2596-1.3394-0.22795-0.5982-0.71377-0.9684-1.0851-0.8269s-0.48756 0.7412-0.25961 1.3394 0.71378 0.9684 1.0851 0.8269z" fill="#AC3232"/>
</svg>
