<?xml version="1.0" encoding="UTF-8"?>
<svg fill="none" viewBox="0 0 421 572" xmlns="http://www.w3.org/2000/svg">
<path d="m201.85 5.8046c-11.738-0.38418-23.205-4.6017-34.941-5.05-16.659-0.6364-34.053-2.3894-49.916 3.3667-22.491 8.1615-42.266 24.955-59.899 42.645-17.216 17.271-34.259 36.796-43.427 60.6-12.882 33.45-12.042 71.881-13.477 108.3-1.4597 37.044 6.03 74.038 4.9916 111.1-0.41648 14.864-5.233 29.48-4.4924 44.328 1.0417 20.884 4.3355 42.354 12.479 61.161 11.805 27.263 30.888 50.388 50.914 70.7 10.176 10.322 22.003 18.779 34.442 25.251 17.486 9.096 36.94 12.337 55.407 18.516 17.306 5.791 34.316 12.839 51.912 17.395 12.981 3.361 26.118 7.75 39.434 7.294 13.475-0.461 27.011-4.21 39.433-10.1 18.625-8.831 35.967-21.735 50.914-37.033 14.103-14.435 25.115-32.472 35.44-50.5 6.486-11.325 10.842-24.023 16.472-35.912 6.334-13.374 14.136-25.923 19.467-39.839 5.807-15.157 11.815-30.736 13.478-47.133 1.796-17.717-1.434-35.708-3.994-53.306-2.709-18.624-6.853-37.019-11.979-54.989-5.199-18.223-9.213-37.622-18.968-53.306-7.427-11.94-20.059-18.577-28.951-29.177-7.149-8.522-15.328-16.745-19.468-27.495-9.618-24.978 2.09-57.538-10.482-80.8-8.727-16.148-25.545-25.498-40.931-33.106-19.445-9.6149-41.2-12.973-62.394-14.589-7.156-0.54548-14.295 1.918-21.464 1.6833z" fill="#5B6EE1" opacity=".11"/>
<path d="m106.58 25.875c-13.737 6.8551-27.729 15.19-37.74 27.931-21.778 27.715-35.211 63.906-44.031 99.754-9.3559 38.027-7.1131 78.637-8.3868 118.11-1.1838 36.685-6.4284 74.331 0.6989 110.13 5.822 29.242 18.284 56.997 33.547 81.4 12.639 20.207 28.275 38.914 46.826 51.872 20.99 14.662 46.26 19.297 69.89 27.133 21.868 7.252 43.661 19.84 66.396 18.355 19.573-1.278 38.271-11.877 55.213-23.143 18.998-12.633 36.026-29.609 50.321-48.68 10.47-13.968 16.762-31.397 25.16-47.084 11.4-21.292 27.447-40.126 34.247-63.843 5.236-18.265 5.06-38.264 4.193-57.458-0.843-18.653-4.412-37.165-9.086-55.064-6.774-25.944-13.363-53.079-27.257-75.016-9.195-14.519-27.718-19.649-35.644-35.113-8.884-17.335-4.264-40.267-10.483-59.055-5.61-16.944-11.388-35.75-23.763-47.084-19.428-17.792-46.909-19.725-71.288-25.537-25.461-6.0703-51.633-11.672-77.578-9.5764-14.147 1.143-28.24 5.4855-41.236 11.97z" fill="#99E550" opacity=".308"/>
<path d="m181.58 33.268c-15.274-2.4368-31.982-8.9288-46.225-2.1276-33.272 15.889-56.838 54.556-73.189 91.488-19.975 45.121-24.297 98.336-26.001 148.94-1.2385 36.764 2.2135 74.386 11.556 109.57 10.515 39.604 22.912 82.245 49.114 110.64 22.955 24.874 56.246 34.083 86.671 43.616 22.46 7.038 46.659 15.616 69.337 9.575 33.156-8.832 61.643-36.144 85.709-63.829 9.606-11.052 15.013-26.061 22.149-39.362 11.644-21.702 28.156-41.265 33.706-65.956 6.329-28.161 1.793-58.463-1.926-87.233-3.011-23.291-6.33-47.566-16.372-68.085-8.726-17.831-28.015-26.754-36.594-44.68-9.976-20.844-4.606-48.857-15.409-69.148-10.953-20.575-28.526-36.866-47.187-47.872-18.461-10.888-40.472-10.512-60.67-15.957-11.571-3.1194-22.897-7.6964-34.669-9.5744z" fill="#FBF236" opacity=".506"/>
<path d="m211.36 527.64c12.342-2.313 24.372-6.761 36.09-11.783 10.087-4.323 19.709-10.006 29.263-15.711 10.147-6.06 20.626-11.712 29.75-19.639 7.247-6.297 13.981-13.592 19.508-21.883 2.835-4.253 4.112-9.674 6.828-14.028 3.96-6.348 10.034-10.786 13.656-17.395 4.783-8.726 7.496-18.796 10.242-28.617 3.683-13.172 6.759-26.675 8.291-40.4 1.76-15.773 1.735-31.816 0.975-47.694-0.604-12.625-2.1-25.228-4.389-37.595-1.2-6.483-3.617-12.609-4.877-19.078-1.152-5.911-0.478-12.333-2.439-17.955-5.827-16.709-17.711-29.692-26.824-44.328-4.468-7.177-10.82-13.119-13.656-21.322-2.965-8.58-1.032-18.522-2.926-27.495-2.209-10.466-5.566-20.667-9.754-30.3-2.683-6.171-6.118-11.907-9.754-17.394-5.026-7.584-9.974-15.564-16.582-21.322-7.071-6.1612-15.496-10.194-23.898-13.467-9.422-3.6697-19.363-5.6056-29.262-6.7333-6.148-0.7004-12.395 0.8042-18.533 0-8.62-1.1295-17.299-3.0449-25.361-6.7334-5.078-2.3234-8.87-7.8915-14.144-9.5389-2.824-0.8821-5.86-0.2386-8.778 0-5.734 0.4688-11.662 0.5677-17.07 2.8056-3.227 1.3352-5.969 3.91-8.779 6.1722-10.047 8.0895-20.364 16.106-28.775 26.372-9.6829 11.819-18.052 25.323-24.385 39.839-4.6816 10.731-6.4321 22.846-9.7542 34.228-3.5022 11.999-7.6331 23.765-10.73 35.911-4.0505 15.889-8.1268 31.878-10.242 48.256-1.2922 10.006-1.5219 20.185-1.4632 30.3 0.0947 16.31 1.0966 32.642 2.9263 48.817 1.6665 14.732 4.4817 29.272 7.3156 43.767 1.1423 5.842 2.3395 11.682 3.9017 17.394 3.4894 12.759 8.099 25.076 12.193 37.595 3.551 10.859 6.0784 22.249 10.73 32.544 2.5372 5.616 5.9232 10.685 9.2665 15.711 6.5157 9.795 13.332 19.402 20.972 28.056 7.238 8.199 14.846 16.16 23.41 22.444 8.032 5.894 16.817 10.542 25.848 14.028 9.764 3.769 19.973 6.347 30.238 7.295 6.976 0.644 14.065 0.172 20.972-1.123z" fill="#D9A066" stroke="#000" stroke-width=".90078"/>
<path d="m237.21 336.86c-7.668-4.183-19.334 1.869-23.897 10.1-3.159 5.697 1.327 13.445 1.463 20.2 0.202 10.104 1.393 20.568-0.976 30.3-2.159 8.87-5.221 18.725-11.705 24.128-4.828 4.024-12.078 1.224-17.557 3.928-9.535 4.706-23.078 9.117-25.361 20.761-2.13 10.863 6.035 23.096 14.143 29.178 8.754 6.566 21.546 7.93 31.214 3.367 9.821-4.636 14.169-18.238 20.484-28.056 4.264-6.631 7.965-13.723 11.705-20.761 3.912-7.364 5.22-17.261 11.217-22.445 6.021-5.204 16.587-0.084 21.947-6.172 3.704-4.207 5.504-11.697 3.901-17.394-2.665-9.479-13.535-12.445-19.996-19.078-4.203-4.316-9.154-8.008-12.192-13.467-2.412-4.334-0.348-12.384-4.39-14.589z" fill="#FBF236" opacity=".288"/>
<path d="m160.53 388.76c-2.294-0.624-4.936-1.352-7.069-0.199-2.519 1.361-4.443 4.45-5.173 7.539-0.884 3.736-0.1 8.029 1.379 11.506 1.483 3.486 3.971 6.799 7.07 8.332 3.591 1.777 8.081 1.826 11.725 0.199 2.502-1.117 3.508-4.868 5.863-6.349 1.663-1.045 4.202-0.017 5.517-1.587 0.775-0.924 0.86-2.5 0.69-3.769-0.392-2.926-3.388-4.813-3.793-7.737-0.416-2.997 2.408-6.057 1.552-8.927-0.543-1.818-2.145-3.457-3.794-3.769-1.959-0.372-4.431 0.667-5.518 2.579-1.164 2.048 2.019 6.124 0.173 7.34-0.942 0.619-1.807-1.387-2.759-1.984-1.896-1.19-3.761-2.603-5.863-3.174z" fill="#FBF236" opacity=".349"/>
<path d="m92.362 387.36c-6.5219-2.57-12.316-8.147-16.338-14.589-4.4696-7.158-5.2952-16.549-7.5595-24.969-3.2113-11.942-8.3369-23.694-8.5348-36.192-0.0654-4.128 0.2162-8.822 2.4385-12.064 2.4763-3.612 8.9671-2.043 10.73-6.172 2.2273-5.219-1.9262-11.415-2.9263-17.114-2.7764-15.821-11.149-31.557-8.5349-47.414 0.4705-2.854 1.6283-7.522 4.1456-7.295 6.1298 0.555 3.611 13.936 7.5594 19.359 2.7798 3.818 7.3696 11.556 10.73 8.417 5.1204-4.785-5.1062-13.997-7.5595-21.042-2.1725-6.239-4.8175-12.309-6.3402-18.797-1.759-7.496-2.909-15.248-3.1701-23.006-0.0789-2.344-1.3806-6.076 0.4877-7.014 4.933-2.478 9.8328 6.248 12.68 11.503 4.0908 7.549-2.8307 25.385 4.8771 26.092 7.8246 0.717 4.5478-17.472 8.5349-25.251 2.2574-4.404 4.2116-10.599 8.5348-11.783 7.757-2.123 19.101 2.373 21.947 10.942 4.92 14.814-11.27 28.952-17.314 43.205-3.968 9.361-9.6754 17.857-12.436 27.776-4.6594 16.739 7.2892 44.823-6.5841 52.183-4.0139 2.13-7.5019-10.891-11.217-8.136-5.5174 4.091 0.6301 15.271 2.6824 22.444 5.0951 17.809 13.754 34.275 23.41 49.378 2.078 3.25 5.951 4.981 7.315 8.698 1.045 2.844-1.525 6.936 0.244 9.258 2.335 3.063 8.434-1.357 10.486 1.964 1.913 3.095 1.103 9.23-1.707 11.222-3.831 2.716-9.113-1.736-12.924-4.489-5.701-4.118-7.4939-13.998-13.656-17.114z" fill="#FBF236" opacity=".317"/>
<path d="m207.95 96.705c2.495-5.5782-8.715-10.77-7.316-16.833 1.806-7.8214 10.536-12.989 17.558-13.467 11.83-0.8055 22.985 9.2783 31.701 18.517 5.475 5.8034 6.774 15.466 11.705 21.884 2.068 2.692 4.36 7.893 7.315 6.733 5.859-2.299 1.788-14.298 4.39-20.761 0.929-2.3085 1.72-6.585 3.901-6.1723 8.068 1.526 5.765 17.698 7.316 26.933 1.175 7-1.537 15.084 1.463 21.323 3.432 7.135 13.51 7.537 17.07 14.588 2.714 5.377-0.336 12.884 1.951 18.517 3.017 7.434 10.349 11.395 14.631 17.956 3.064 4.694 6.702 9.418 7.803 15.15 0.353 1.835 0.878 4.579-0.487 5.611-6.704 5.065-16.073-3.616-22.923-8.417-5.89-4.128-10.505-10.474-14.631-16.833-6.527-10.061-8.092-24.003-15.607-33.106-4.723-5.722-12.069-7.612-17.557-12.344-3.868-3.335-6.524-8.481-10.73-11.223-7.83-5.104-17.985-3.94-25.848-8.977-3.22-2.063-4.619-8.054-8.291-8.417-7.417-0.733-13.262 8.039-19.021 13.467-4.983 4.696-7.011 14.095-13.168 16.272-5.579 1.973-13.79 1.066-17.07-4.489-2.403-4.07-1.131-11.178 1.951-14.589 4.128-4.568 12.247 1.308 17.07-2.244 4.485-3.304 3.869-12.298 8.291-15.711 5.194-4.009 15.671 3.031 18.533-3.3671z" fill="#FBF236" opacity=".195"/>
<path d="m166.57 58.847c-1.845 0.6428-4.744 0.8133-5.173 2.9758-0.5 2.5276 2.32 4.6197 4.139 6.1499 2.025 1.704 6.281 0.235 7.069 2.9757 0.692 2.4029-2.043 4.5848-3.621 6.3483-1.888 2.1098-5.33 2.193-6.724 4.7612-1.561 2.8739-2.11 7.0478-0.863 10.118 1.297 3.1902 4.575 5.3271 7.587 5.9515 4.487 0.9299 9.68-0.548 13.278-3.7692 2.313-2.0715 1.232-8.4866 4.138-8.9273 2.419-0.3669 2.562 6.0564 5 6.1499 2.439 0.0935 5.52-2.9531 5.346-5.7531-0.265-4.2635-6.948-3.8883-9.139-7.3402-1.49-2.3479-0.911-5.8607-2.242-8.3321-1.798-3.3398-4.583-5.9374-7.414-8.1337-2.197-1.7041-4.623-3.3131-7.242-3.7693-1.375-0.2394-2.808 0.1317-4.139 0.5951z" fill="#FBF236" opacity=".31"/>
<path d="m328.66 290.29-7.804 1.122s-2.926 8.978-4.877 10.942-5.609 9.258-4.145 12.064c1.463 2.805 5.608 5.891 7.803 1.402s1.219-7.575 2.682-10.38c1.463-2.806 8.535-10.1 11.462-6.734 2.926 3.367-1e-3 8.978 2.194 14.589s-0.244 7.295 2.926 6.734c3.171-0.561 4.146-4.77 3.902-8.978s-4.877-18.236-5.365-20.2c-0.487-1.964-3.901-10.942-5.365-16.272-1.463-5.331-3.901-16.553-5.608-18.517s-9.51-15.431-10.73-14.309c-1.219 1.123 0.244 7.856 0.244 9.259s1.463 1.122-3.17 2.805c-4.633 1.684-6.828-1.402-5.365 2.806s7.316 4.208 5.609 5.892c-1.707 1.683-9.267-1.684-5.365 2.244s7.803-1.122 11.949 5.05c4.145 6.172 6.584 10.381 6.584 12.345 0 1.963 2.439 8.136 2.439 8.136z" fill="#FBF236" opacity=".349"/>
<path d="m240.37 235.8s-3.104-0.198-3.794 0.397c-0.689 0.595-3.448 0.794-3.276 3.373s1.38 3.967 2.242 5.554 4.138 3.571 5 3.174c0.862-0.396 1.725-3.372 2.587-4.959s-2.759-7.539-2.759-7.539z" fill="#8F563B"/>
<path d="m180.76 195.18-3.658-0.14s-2.438 0.28-2.682 2.104-1.585 3.086 0.122 4.489 1.951 2.244 4.755 1.964c2.804-0.281 3.658-0.141 4.146-1.543 0.487-1.403-0.122-5.331-0.122-5.331l-2.561-1.543z" fill="#8F563B"/>
<path d="m223.38 148.12h-1.293l-2.241 1.289-0.345 2.282 0.948 2.48 2.5 1.983s1.552-0.198 1.897-0.396c0.345-0.199 0.948-1.786 0.948-1.786l-0.431-3.075-1.983-2.777z" fill="#8F563B"/>
<path d="m117.42 323.19-1.465 0.099s-1.466 1.587-1.207 2.282c0.258 0.694 0.258 2.083 0.862 2.38 0.603 0.298 2.069 0.298 2.069 0.298s1.466-0.794 1.38-1.29c-0.087-0.496 0.517-1.587 0-2.182-0.518-0.595-1.639-1.587-1.639-1.587z" fill="#8F563B"/>
<path d="m139.13 273.93-2.966 2.467s-1.778 1.94-1 3.554c0.778 1.613 0.39 3.556 2.486 3.462s2.737 0.4 4.805-1.798c2.067-2.198 2.816-2.689 2.455-4.141-0.361-1.453-2.934-4.128-2.934-4.128l-2.846 0.584z" fill="#8F563B"/>
<path d="m210.18 302.31-3.328-1.751s-2.345-0.823-3.18 0.752c-0.836 1.575-2.497 2.145-1.392 4.196 1.106 2.051 1.049 2.936 3.73 3.921 2.682 0.984 3.423 1.492 4.343 0.414 0.919-1.078 1.673-4.973 1.673-4.973l-1.846-2.559z" fill="#8F563B"/>
<path d="m224.07 304.38-2.534-1.477s-1.784-0.693-2.421 0.635c-0.636 1.327-1.9 1.808-1.059 3.537 0.842 1.729 0.798 2.474 2.84 3.304 2.041 0.83 2.605 1.258 3.306 0.349 0.7-0.909 1.273-4.191 1.273-4.191l-1.405-2.157z" fill="#8F563B"/>
<path d="m287.52 187.33-2.534-1.476s-1.785-0.693-2.421 0.634c-0.636 1.328-1.901 1.808-1.059 3.537 0.841 1.729 0.798 2.475 2.839 3.305 2.042 0.83 2.606 1.258 3.306 0.349s1.274-4.191 1.274-4.191l-1.405-2.158z" fill="#8F563B"/>
<path d="m294.77 126.56-1.285-1.064s-0.905-0.499-1.228 0.457-0.964 1.303-0.537 2.548c0.427 1.246 0.405 1.783 1.44 2.381 1.036 0.598 1.322 0.906 1.677 0.251 0.355-0.654 0.646-3.019 0.646-3.019l-0.713-1.554z" fill="#8F563B"/>
<path d="m252.16 76.694-1.579-0.1218s-0.998 0.1261-0.833 1.1341c0.165 1.0081-0.221 1.6918 0.714 2.4901 0.934 0.7982 1.162 1.2678 2.316 1.146 1.153-0.1217 1.538-0.0338 1.539-0.8055 1e-3 -0.7718-0.838-2.9566-0.838-2.9566l-1.319-0.8863z" fill="#8F563B"/>
<path d="m192.82 58.601-1.223-0.0814s-0.773 0.0843-0.645 0.7583-0.171 1.1312 0.552 1.6649c0.724 0.5337 0.901 0.8477 1.794 0.7663 0.894-0.0814 1.192-0.0225 1.192-0.5386 1e-3 -0.516-0.648-1.9769-0.648-1.9769l-1.022-0.5926z" fill="#8F563B"/>
<path d="m160.95 68.566-1.579-0.1269s-0.998 0.1314-0.833 1.1812-0.221 1.7619 0.714 2.5932c0.934 0.8313 1.162 1.3203 2.316 1.1935 1.153-0.1268 1.538-0.0351 1.539-0.8389s-0.838-3.0791-0.838-3.0791l-1.319-0.923z" fill="#8F563B"/>
<path d="m137.12 79.818 0.374-1.7703s0.055-1.1539-0.873-1.1429c-0.927 0.0109-1.472-0.5457-2.341 0.3745-0.869 0.9203-1.327 1.0968-1.411 2.4268-0.085 1.3299-0.228 1.7505 0.46 1.8865 0.689 0.136 2.779-0.4338 2.779-0.4338l1.012-1.3408z" fill="#8F563B"/>
<path d="m147.04 105.51 0.456-2.059s0.067-1.342-1.065-1.329c-1.131 0.012-1.797-0.635-2.857 0.435s-1.618 1.276-1.722 2.823c-0.103 1.546-0.278 2.036 0.562 2.194s3.391-0.505 3.391-0.505l1.235-1.559z" fill="#8F563B"/>
<path d="m94.337 154.66-0.9054-1.852s-0.7568-1.024-1.5678-0.116c-0.811 0.907-1.681 0.968-1.8061 2.584-0.1251 1.617-0.4056 2.208 0.4474 3.41 0.8531 1.201 1.0203 1.694 1.7231 1.141s2.1508-3.058 2.1508-3.058l-0.042-2.109z" fill="#8F563B"/>
<path d="m82.388 170.51-0.9054-1.852s-0.7567-1.024-1.5677-0.117c-0.811 0.908-1.681 0.968-1.8061 2.585-0.1252 1.616-0.4057 2.208 0.4474 3.409 0.8531 1.202 1.0203 1.694 1.7231 1.142 0.7028-0.553 2.1508-3.058 2.1508-3.058l-0.0421-2.109z" fill="#8F563B"/>
<path d="m236.76 207.74s-2.268-0.137-2.772 0.273c-0.504 0.409-2.521 0.545-2.395 2.319s1.008 2.729 1.638 3.821c0.631 1.091 3.025 2.456 3.655 2.183 0.631-0.273 1.261-2.32 1.891-3.411 0.63-1.092-2.017-5.185-2.017-5.185z" fill="#8F563B"/>
<path d="m245.12 184.47s-0.654-2.503-1.16-2.911c-0.505-0.407-1.297-2.545-2.706-1.81-1.408 0.735-1.892 2.013-2.572 3.064-0.681 1.051-0.989 4.105-0.553 4.695s2.323 0.582 3.429 0.896 3.562-3.934 3.562-3.934z" fill="#8F563B"/>
<path d="m262.19 141.43s-0.41-1.867-0.726-2.171c-0.317-0.304-0.814-1.898-1.697-1.35-0.884 0.548-1.187 1.501-1.614 2.285-0.426 0.784-0.62 3.061-0.346 3.501 0.273 0.44 1.457 0.434 2.15 0.668s2.233-2.933 2.233-2.933z" fill="#8F563B"/>
<path d="m335.07 374.67s-2.137-0.18-2.612 0.359-2.375 0.718-2.256 3.053 0.95 3.593 1.544 5.029c0.593 1.437 2.849 3.234 3.443 2.874 0.594-0.359 1.188-3.053 1.781-4.49 0.594-1.437-1.9-6.825-1.9-6.825z" fill="#8F563B"/>
<path d="m318.86 381.42s-2.138-0.18-2.612 0.359c-0.475 0.539-2.375 0.718-2.257 3.053 0.119 2.335 0.95 3.593 1.544 5.029 0.594 1.437 2.85 3.234 3.444 2.874 0.593-0.359 1.187-3.053 1.781-4.49s-1.9-6.825-1.9-6.825z" fill="#8F563B"/>
<path d="m320.15 348.08s-1.493-0.123-1.825 0.247-1.659 0.493-1.576 2.096 0.663 2.466 1.078 3.453c0.415 0.986 1.991 2.219 2.406 1.973 0.414-0.247 0.829-2.097 1.244-3.083 0.415-0.987-1.327-4.686-1.327-4.686z" fill="#8F563B"/>
<path d="m271.44 370.94s-1.304-0.11-1.593 0.22c-0.29 0.331-1.448 0.441-1.376 1.871s0.579 2.201 0.941 3.081 1.738 1.981 2.1 1.761 0.724-1.871 1.086-2.751c0.362-0.881-1.158-4.182-1.158-4.182z" fill="#8F563B"/>
<path d="m254.66 333.37s-3.088-0.23-3.774 0.459c-0.686 0.688-3.431 0.918-3.259 3.901s1.372 4.59 2.23 6.425c0.857 1.836 4.117 4.131 4.974 3.672 0.858-0.459 1.716-3.901 2.573-5.737 0.858-1.836-2.744-8.72-2.744-8.72z" fill="#8F563B"/>
<path d="m149.86 475s-1.745-0.124-2.133 0.246c-0.388 0.369-1.94 0.492-1.843 2.093 0.097 1.6 0.776 2.462 1.261 3.447s2.327 2.216 2.812 1.97 0.97-2.093 1.455-3.078c0.484-0.985-1.552-4.678-1.552-4.678z" fill="#8F563B"/>
<path d="m140.32 427.78s-2.1-0.148-2.567 0.296c-0.467 0.445-2.333 0.593-2.217 2.519 0.117 1.926 0.934 2.963 1.517 4.148 0.584 1.185 2.801 2.667 3.384 2.37 0.583-0.296 1.167-2.518 1.75-3.703 0.583-1.186-1.867-5.63-1.867-5.63z" fill="#8F563B"/>
<path d="m200.92 415.83s-0.872-2.204-1.431-2.47c-0.561-0.266-1.55-2.093-2.973-1.072-1.424 1.022-1.837 2.338-2.474 3.487-0.636 1.149-0.734 4.096-0.232 4.55 0.501 0.454 2.48 3e-3 3.664 0.042 1.183 0.037 3.446-4.537 3.446-4.537z" fill="#8F563B"/>
<path d="m117.98 383.7s-0.729-1.641-1.198-1.839-1.298-1.559-2.49-0.798c-1.193 0.761-1.539 1.741-2.071 2.596-0.533 0.856-0.615 3.051-0.196 3.389 0.42 0.338 2.078 2e-3 3.069 0.03s2.886-3.378 2.886-3.378z" fill="#8F563B"/>
<path d="m166.74 373.88s-0.502-1.13-0.825-1.266c-0.323-0.137-0.893-1.074-1.714-0.55s-1.059 1.199-1.426 1.788c-0.367 0.588-0.423 2.099-0.134 2.332s1.43 2e-3 2.112 0.021c0.683 0.017 1.987-2.325 1.987-2.325z" fill="#8F563B"/>
<path d="m173.12 326.9s-0.785-1.767-1.29-1.98-1.397-1.678-2.68-0.859c-1.284 0.819-1.656 1.874-2.23 2.795-0.573 0.921-0.661 3.283-0.21 3.647 0.452 0.364 2.236 3e-3 3.303 0.031 1.067 0.027 3.107-3.634 3.107-3.634z" fill="#8F563B"/>
<path d="m202.78 326.9s-0.785-1.767-1.29-1.98-1.397-1.678-2.68-0.859c-1.284 0.819-1.656 1.874-2.23 2.795-0.573 0.921-0.661 3.283-0.21 3.647 0.452 0.364 2.237 3e-3 3.303 0.031 1.067 0.027 3.107-3.634 3.107-3.634z" fill="#8F563B"/>
<path d="m138.56 313.03s1.524-0.928 1.702-1.512 1.439-1.63 0.709-3.095c-0.729-1.465-1.652-1.879-2.46-2.526s-2.863-0.715-3.172-0.19c-0.311 0.524 0.028 2.572 0.019 3.8s3.202 3.523 3.202 3.523z" fill="#8F563B"/>
<path d="m93.056 447.41-1.0269-1.068s-1.7618-0.221-1.9321 0.372c-0.1703 0.594-0.856 1.383-0.6003 2.016 0.2559 0.632 1.2339 1.756 1.2339 1.756s1.37 0.672 1.5573 0.324c0.1874-0.348 1.1289-0.506 1.0777-1.241-0.0514-0.735-0.3096-2.159-0.3096-2.159z" fill="#8F563B"/>
<path d="m165.86 517.36-0.914-0.516s-1.569-0.107-1.72 0.18c-0.152 0.286-0.762 0.668-0.535 0.974 0.228 0.305 1.099 0.849 1.099 0.849s1.219 0.325 1.386 0.156c0.167-0.168 1.005-0.244 0.959-0.6-0.045-0.355-0.275-1.043-0.275-1.043z" fill="#8F563B"/>
<path d="m190.69 526.49-0.627-0.386s-1.076-0.08-1.18 0.135c-0.104 0.214-0.523 0.5-0.367 0.728 0.156 0.229 0.754 0.635 0.754 0.635s0.836 0.243 0.951 0.117c0.114-0.126 0.689-0.183 0.658-0.448-0.03-0.266-0.189-0.781-0.189-0.781z" fill="#8F563B"/>
<path d="m253.12 265.51-1.81 2.518s-0.98 1.85 4e-3 2.857c0.985 1.006 1.114 2.531 2.765 1.967 1.651-0.563 2.274-0.351 3.427-2.459s1.641-2.647 1.024-3.633c-0.616-0.986-3.273-2.352-3.273-2.352l-2.137 1.102z" fill="#8F563B"/>
<path d="m275.31 226.23-1.809 2.518s-0.981 1.85 7e-3 2.857c0.985 1.006 1.114 2.531 2.765 1.967 1.652-0.563 2.274-0.351 3.427-2.459 1.154-2.108 1.641-2.647 1.024-3.633-0.616-0.986-3.273-2.352-3.273-2.352l-2.141 1.102z" fill="#8F563B"/>
<path d="m306.65 230.72-2.657-1.156s-1.839-0.469-2.347 0.93c-0.51 1.398-1.722 2.032-0.725 3.647 0.998 1.616 1.024 2.362 3.131 2.936s2.707 0.93 3.319-0.059c0.612-0.99 0.877-4.325 0.877-4.325l-1.598-1.973z" fill="#8F563B"/>
<path d="m135.77 176.16-2.305 1.916s-1.382 1.508-0.777 2.762c0.604 1.254 0.303 2.764 1.932 2.691s2.127 0.31 3.733-1.398c1.607-1.708 2.189-2.089 1.909-3.218-0.281-1.129-2.281-3.208-2.281-3.208l-2.211 0.455z" fill="#8F563B"/>
<path d="m206.02 490.78-1.137-0.646s-1.952-0.134-2.14 0.225c-0.189 0.359-0.948 0.837-0.665 1.219 0.284 0.382 1.367 1.063 1.367 1.063s1.517 0.407 1.724 0.196c0.208-0.211 1.251-0.306 1.194-0.751s-0.343-1.306-0.343-1.306z" fill="#8F563B"/>
<path d="m242.93 503.73-1.16 0.59s-1.341 1.637-1.222 2.034c0.118 0.396-0.05 1.373 0.387 1.369s1.585-0.526 1.585-0.526 1.244-1.078 1.237-1.396c-7e-3 -0.319 0.597-1.301 0.264-1.536s-1.091-0.535-1.091-0.535z" fill="#8F563B"/>
<path d="m278.56 451.24s-0.389-1.436-0.762-1.625-0.887-1.389-2.017-0.787c-1.13 0.601-1.567 1.426-2.147 2.136-0.579 0.71-0.965 2.586-0.654 2.893 0.31 0.307 1.778 0.09 2.623 0.155 0.844 0.065 2.957-2.772 2.957-2.772z" fill="#8F563B"/>
<path d="m320.75 445.39s-0.356-0.835-0.697-0.945-0.811-0.808-1.844-0.458-1.433 0.83-1.963 1.243c-0.529 0.413-0.882 1.505-0.598 1.683 0.284 0.179 1.626 0.053 2.398 0.09 0.772 0.038 2.704-1.613 2.704-1.613z" fill="#8F563B"/>
<path d="m304.62 419.98s-0.657-0.541-1.003-0.451-1.047-0.269-1.812 0.604-0.919 1.513-1.214 2.166c-0.296 0.653-0.156 1.806 0.168 1.808 0.323 2e-3 1.452-0.842 2.147-1.23 0.696-0.389 1.714-2.897 1.714-2.897z" fill="#8F563B"/>
<path d="m333.34 416.41s-0.658-0.541-1.003-0.451c-0.346 0.09-1.047-0.269-1.812 0.604s-0.919 1.513-1.215 2.166c-0.295 0.653-0.155 1.806 0.168 1.808 0.324 2e-3 1.453-0.842 2.148-1.23 0.695-0.389 1.714-2.897 1.714-2.897z" fill="#8F563B"/>
<path d="m96.947 111.35c-20.457 19.518-30.741 51.019-38.725 80.183-5.6955 20.805-6.0337 43.278-5.8525 65.089 0.2676 32.222 2.4964 64.983 10.242 95.95 8.6884 34.737 14.833 76.545 39.992 98.195 11.194 9.633 30.068 16.624 41.455 7.294 15.619-12.796 11.009-43.046 10.378-65.094-0.64-22.363-10.477-43.141-14.28-65.084-5.013-28.924-11.471-58.041-11.217-87.533 0.253-29.395 3.576-59.507 12.681-86.973 6.3-19.006 35.577-33.09 28.287-51.622-4.504-11.448-21.471-6.9618-32.357-5.9399-14.216 1.3344-29.624 5.0599-40.604 15.535z" fill="#fff" opacity=".124"/>
<path d="m168.27 78.556c18.019 8.3539 34.877 8.7002 37.654 0.7736 2.776-7.9267-9.581-21.125-27.6-29.478s-34.877-8.7002-37.654-0.7736c-2.776 7.9266 9.581 21.125 27.6 29.478z" fill="#fff" opacity=".124"/>
<path d="m235.39 79.468c7.611-5.2939 10.3-12.6 6.005-16.319-4.296-3.7187-13.949-2.4418-21.561 2.852-7.612 5.2939-10.3 12.6-6.005 16.319 4.296 3.7187 13.949 2.4418 21.561-2.852z" fill="#fff" opacity=".124"/>
<path d="m305.49 377.82c-10.061 11.981-11.684 30.987-20.972 43.767-11.416 15.71-29.237 23.827-41.455 38.717-9.354 11.399-30.054 24.17-23.898 38.156 8.374 19.022 37.901 6.89 55.599 0.561 16.495-5.899 30.669-19.674 42.431-34.228 11.219-13.884 18.756-31.449 25.36-48.817 4.619-12.146 11.711-25.091 9.755-38.156-1.364-9.106-7.316-21.883-14.144-22.444s-23.862 11.948-32.676 22.444z" fill="#222034" opacity=".083"/>
<path d="m199.49 526.72c9.293 0 16.826-3.517 16.826-7.856 0-4.338-7.533-7.856-16.826-7.856s-16.826 3.518-16.826 7.856c0 4.339 7.533 7.856 16.826 7.856z" fill="#222034" opacity=".145"/>
<path d="m253.25 284.61c25.686-15.98 30.766-52.723 11.348-82.066-19.419-29.344-55.983-40.177-81.669-24.196-25.686 15.98-30.766 52.723-11.347 82.066 19.418 29.344 55.982 40.177 81.668 24.196z" fill="#8F974A"/>
<path d="m221.34 148.17c0.475-1.012 1.266-2.022 1.186-3.131-0.048-0.672-0.486-1.31-0.982-1.782-1.214-1.154-2.851-2.097-4.545-2.245-1.004-0.087-2.088 0.261-2.897 0.845-1.311 0.948-2.204 2.464-2.698 3.977-0.489 1.491-0.744 3.234-0.154 4.69 0.486 1.2 1.593 2.225 2.807 2.752 3.818 1.142 5.461-1.592 7.283-5.106z" fill="#DF7126" stroke="#000" stroke-width="1.127"/>
<path d="m219.45 144.01c-0.869-0.937 1.094-2.313 1.352-3.549 0.268-1.288 0.597-2.686 0.185-3.939-0.55-1.671-2.281-2.726-3.339-4.149-2.332-3.134-4.449-6.414-6.63-9.649-1.093-1.621-3.016-2.965-3.235-4.89-0.164-1.434 2.22-2.787 1.531-4.066-0.435-0.811-1.723-0.654-2.733-0.702-1.01-0.049-2.14-1.546-2.14-1.546s-0.869-1.895-1.392-1.841c-0.522 0.055-2.851 2.18-2.851 2.18s-1.857 4.285-1.813 6.542c0.037 1.852 0.605 3.787 1.697 5.307 1.784 2.484 4.892 3.765 7.429 5.53 1.596 1.111 3.463 1.878 4.896 3.18 1.349 1.225 2.593 2.64 3.378 4.261 0.833 1.718 0.98 3.68 1.302 5.552 0.187 1.089-0.684 2.863 0.364 3.293 0.779 0.32 2.372-0.778 1.999-1.514z" fill="#DF7126" stroke="#000" stroke-width="1.127"/>
<path d="m206.81 112.95 2.934-4.218s2.644-2.999 1.736-4.239c-0.278-0.38-0.97-0.034-1.441 0.06-0.512 0.102-0.968 0.695-1.464 0.538-0.439-0.139-0.523-0.74-0.756-1.127-0.204-0.339-0.188-0.893-0.563-1.044-0.4-0.161-0.938 0.074-1.242 0.374-0.847 0.835-0.823 2.711-1.014 3.372-0.191 0.66-1.22 5.699-1.157 6.269 0.064 0.57 0.161 2.405 0.926 2.402 0.767-3e-3 2.041-2.387 2.041-2.387z" fill="#000"/>
<path d="m210.09 104.64 2.934-4.218s2.643-2.9991 1.736-4.2386c-0.279-0.3801-0.971-0.0344-1.442 0.0593-0.511 0.1018-0.968 0.6957-1.464 0.5385-0.439-0.1393-0.522-0.7401-0.755-1.1269-0.204-0.3391-0.189-0.8932-0.563-1.0441-0.4-0.1617-0.938 0.0738-1.242 0.3735-0.847 0.8349-0.823 2.7118-1.015 3.3721-0.191 0.6605-1.219 5.6992-1.156 6.2692 0.064 0.57 0.161 2.405 0.926 2.402 0.767-3e-3 2.041-2.387 2.041-2.387z" fill="#000"/>
<path d="m212.83 97.51 2.321-3.3947s2.098-2.4093 1.358-3.4205c-0.226-0.3101-0.779-0.0354-1.156 0.0369-0.41 0.0785-0.772 0.556-1.171 0.4248-0.353-0.1161-0.425-0.6037-0.616-0.9186-0.167-0.2764-0.159-0.7251-0.46-0.8503-0.322-0.134-0.753 0.0525-0.995 0.293-0.672 0.6698-0.638 2.1906-0.786 2.7241s-0.932 4.6079-0.877 5.0701c0.056 0.4622 0.149 1.9492 0.763 1.9529 0.616 0.0037 1.619-1.9177 1.619-1.9177z" fill="#000"/>
<path d="m214.2 92.311c0.403-0.1828 1.944-2.7322 2.175-2.91 0.231-0.1776 0.309-2.6149 0.384-3.928 0.056-0.957 0.323-1.9529 0.052-2.8749-0.235-0.8038-0.75-1.5564-1.395-2.1095-0.475-0.4064-1.088-0.7011-1.713-0.7955-1.327-0.1682-2.194 0.4342-2.58 0.691-0.493 0.679 0.962-0.0183 1.433 0.056 0.309 0.0484 0.62 0.1208 0.9 0.2522 0.637 0.298 1.465 0.5555 1.731 1.1908 0.465 1.1076 0.486 3.1041-0.666 3.5282-0.612 0.2247-0.952-0.9031-1.544-1.1718-0.461-0.2093-1.286-0.4734-1.493-0.311-0.207 0.1621-0.802 0.588-0.848 0.8875-0.046 0.2994 0.515-0.9631 1.278-0.3892 0.764 0.574 1.043 1.7875 1.152 2.532s0.394 2.124 0.31 3.1576c-0.084 1.0335-1.189 1.789-0.344 2.3801 0.845 0.5912 1.168-0.1855 1.168-0.1855z" fill="#000"/>
<path d="m139.07 200.14c-1.147-4e-3 -2.423 0.273-3.429-0.259-0.61-0.322-1.026-0.974-1.262-1.608-0.576-1.551-0.778-3.389-0.21-4.943 0.336-0.92 1.114-1.731 1.999-2.2 1.435-0.762 3.228-0.917 4.852-0.722 1.601 0.192 3.342 0.692 4.462 1.819 0.923 0.929 1.422 2.331 1.409 3.621-0.519 3.842-3.767 4.15-7.821 4.292z" fill="#DF7126" stroke="#000" stroke-width="1.127"/>
<path d="m135.96 196.74c-0.516-1.158-2.624 0-3.89-0.288-1.32-0.3-2.768-0.593-3.77-1.478-1.338-1.181-1.606-3.146-2.499-4.673-1.966-3.361-4.16-6.594-6.283-9.864-1.064-1.639-1.523-3.894-3.236-4.89-1.277-0.741-3.538 0.796-4.451-0.344-0.578-0.721 0.106-1.792 0.481-2.702s-0.558-2.529-0.558-2.529-1.414-1.557-1.145-1.995c0.268-0.438 3.231-1.604 3.231-1.604s4.791 0.148 6.889 1.128c1.721 0.804 3.299 2.112 4.268 3.706 1.586 2.608 1.492 5.883 2.089 8.854 0.377 1.869 0.318 3.835 0.941 5.64 0.587 1.699 1.395 3.385 2.587 4.753 1.264 1.45 3.043 2.397 4.664 3.461 0.943 0.619 2.969 0.59 2.935 1.694-0.025 0.819-1.718 1.765-2.253 1.131z" fill="#DF7126" stroke="#000" stroke-width="1.127"/>
<path d="m112.11 172.66-5.178 0.828s-3.913 1.081-4.697-0.236c-0.24-0.404 0.372-0.87 0.656-1.245 0.309-0.409 1.056-0.564 1.115-1.067 0.053-0.444-0.476-0.769-0.741-1.135-0.233-0.322-0.759-0.538-0.745-0.931 0.015-0.42 0.46-0.796 0.868-0.94 1.136-0.398 2.885 0.405 3.584 0.511 0.699 0.107 5.852 1.301 6.36 1.593 0.508 0.294 2.187 1.144 1.865 1.819-0.321 0.673-3.087 0.803-3.087 0.803z" fill="#000"/>
<path d="m102.95 172.09-5.177 0.828s-3.9137 1.081-4.6973-0.236c-0.2404-0.404 0.372-0.869 0.6563-1.246 0.3084-0.408 1.0554-0.563 1.1147-1.066 0.0526-0.445-0.4761-0.769-0.7415-1.136-0.2328-0.321-0.7589-0.538-0.7446-0.93 0.0153-0.42 0.4603-0.797 0.868-0.94 1.1356-0.398 2.8854 0.405 3.5842 0.511 0.6988 0.108 5.8512 1.3 6.3592 1.594 0.508 0.293 2.188 1.143 1.866 1.817s-3.088 0.804-3.088 0.804z" fill="#000"/>
<path d="m95.122 171.53-4.1499 0.63s-3.1331 0.846-3.7731-0.227c-0.1961-0.33 0.2916-0.701 0.5167-1.004 0.2443-0.328 0.8427-0.448 0.8861-0.855 0.0386-0.36-0.3886-0.627-0.6045-0.926-0.1897-0.262-0.6137-0.442-0.6054-0.76 0.0088-0.34 0.3629-0.641 0.6891-0.754 0.9084-0.314 2.3198 0.35 2.8817 0.442 0.562 0.092 4.7084 1.098 5.1187 1.34 0.4103 0.241 1.7657 0.942 1.5129 1.486s-2.4723 0.628-2.4723 0.628z" fill="#000"/>
<path d="m89.676 170.57c-0.339 0.279-3.3715 0.575-3.6346 0.705-0.2629 0.13-2.5801-0.818-3.8429-1.298-0.9203-0.35-1.965-0.53-2.7171-1.152-0.6554-0.542-1.1465-1.31-1.3959-2.11-0.1833-0.587-0.2042-1.25-0.0319-1.841 0.3953-1.24 1.3208-1.752 1.7225-1.985 0.8421-0.152-0.4177 0.839-0.5447 1.286-0.0829 0.292-0.1446 0.596-0.1384 0.898 0.0138 0.686-0.0893 1.523 0.3953 2.022 0.8449 0.87 2.7076 1.722 3.5856 0.883 0.4653-0.445-0.4502-1.216-0.4556-1.849-0.0041-0.493 0.0923-1.332 0.3307-1.446 0.2382-0.115 0.8853-0.462 1.1854-0.377 0.2999 0.084-1.1173 0.052-0.8975 0.964s1.241 1.665 1.8938 2.071c0.6526 0.406 1.8273 1.231 2.8312 1.588 1.004 0.357 2.173-0.302 2.3751 0.689 0.2021 0.99-0.661 0.952-0.661 0.952z" fill="#000"/>
<path d="m268.18 177.55c0.356 0.117 3.617 0.418 5.421 0.282 1.879-0.142 3.814-0.384 5.529-1.138 0.501-0.221 1.209-0.436 1.321-0.958 0.218-1.005-1.449-1.661-1.564-2.681-0.093-0.817 1.171-1.648 0.743-2.357-0.35-0.58-1.356-0.583-2.029-0.43-1.63 0.371-2.449 2.269-3.918 3.046-1.543 0.817-3.76 1.596-4.999 1.622s-2.374-2.11-2.708-0.821c-0.332 1.291 0.175 3.006 1.014 3.431 0.84 0.425 1.19 4e-3 1.19 4e-3z" fill="#000"/>
<path d="m277.35 174.62c0.239 0.062 2.461 0.132 3.704-0.026 1.293-0.165 2.628-0.397 3.836-0.952 0.352-0.162 0.845-0.328 0.944-0.672 0.19-0.66-0.926-1.021-0.963-1.679-0.029-0.527 0.87-1.115 0.607-1.559-0.217-0.362-0.906-0.326-1.373-0.2-1.133 0.303-1.772 1.566-2.81 2.128-1.091 0.588-2.642 1.179-3.493 1.245-0.85 0.064-1.54-1.278-1.822-0.429-0.28 0.851-3e-3 1.944 0.555 2.187s0.815-0.043 0.815-0.043z" fill="#000"/>
<path d="m284.62 172.4c0.207 0.022 1.995-0.194 2.944-0.476 0.988-0.294 1.992-0.648 2.811-1.253 0.239-0.176 0.589-0.375 0.58-0.668-0.017-0.566-0.999-0.726-1.198-1.262-0.158-0.429 0.408-1.023 0.084-1.354-0.265-0.272-0.804-0.157-1.145 4e-3 -0.824 0.387-1.009 1.504-1.692 2.092-0.718 0.618-1.803 1.295-2.464 1.452s-1.555-0.86-1.561-0.128c-6e-3 0.733 0.495 1.597 1.003 1.728 0.507 0.132 0.638-0.135 0.638-0.135z" fill="#000"/>
<path d="m289.75 169.81c0.367 0.107 3.201-1.13 3.777-1.154 0.577-0.023 4.545-1.487 6.158-2.778 1.614-1.291 2.942-4.654 2.883-5.191-0.06-0.538-1.66-2.509-1.843-2.634-0.182-0.127-3.901 0.368-3.901 0.368s1.195 0.167 1.958 0.649c0.764 0.481 1.657 1.457 1.314 2.581-0.343 1.122-1.066 2.193-3.628 3.692-2.562 1.498-7.336 2.937-7.336 2.937s-0.824 0.991-0.482 1.21c0.341 0.218 1.1 0.32 1.1 0.32z" fill="#000"/>
<path d="m296.28 166.35c6e-3 -0.26 1.364-1.507 1.496-1.844 0.131-0.338 1.862-2.182 3.01-2.677 1.149-0.495 3.561-0.061 3.891 0.172 0.332 0.232 1.267 1.914 1.311 2.069s-1.02 2.205-1.02 2.205 0.135-0.777-0.019-1.412c-0.155-0.634-0.598-1.527-1.383-1.733-0.785-0.205-1.615-0.163-3.085 0.824-1.471 0.989-3.348 3.326-3.348 3.326s-0.799 0.131-0.87-0.154c-0.07-0.284 0.017-0.776 0.017-0.776z" fill="#000"/>
<path d="m268.18 177.55c0.356 0.117 3.617 0.418 5.421 0.282 1.879-0.142 3.814-0.384 5.529-1.138 0.501-0.221 1.209-0.436 1.321-0.958 0.218-1.005-1.449-1.661-1.564-2.681-0.093-0.817 1.171-1.648 0.743-2.357-0.35-0.58-1.356-0.583-2.029-0.43-1.63 0.371-2.449 2.269-3.918 3.046-1.543 0.817-3.76 1.596-4.999 1.622s-2.374-2.11-2.708-0.821c-0.332 1.291 0.175 3.006 1.014 3.431 0.84 0.425 1.19 4e-3 1.19 4e-3z" fill="#000"/>
<path d="m277.35 174.62c0.239 0.062 2.461 0.132 3.704-0.026 1.293-0.165 2.628-0.397 3.836-0.952 0.352-0.162 0.845-0.328 0.944-0.672 0.19-0.66-0.926-1.021-0.963-1.679-0.029-0.527 0.87-1.115 0.607-1.559-0.217-0.362-0.906-0.326-1.373-0.2-1.133 0.303-1.772 1.566-2.81 2.128-1.091 0.588-2.642 1.179-3.493 1.245-0.85 0.064-1.54-1.278-1.822-0.429-0.28 0.851-3e-3 1.944 0.555 2.187s0.815-0.043 0.815-0.043z" fill="#000"/>
<path d="m284.62 172.4c0.207 0.022 1.995-0.194 2.944-0.476 0.988-0.294 1.992-0.648 2.811-1.253 0.239-0.176 0.589-0.375 0.58-0.668-0.017-0.566-0.999-0.726-1.198-1.262-0.158-0.429 0.408-1.023 0.084-1.354-0.265-0.272-0.804-0.157-1.145 4e-3 -0.824 0.387-1.009 1.504-1.692 2.092-0.718 0.618-1.803 1.295-2.464 1.452s-1.555-0.86-1.561-0.128c-6e-3 0.733 0.495 1.597 1.003 1.728 0.507 0.132 0.638-0.135 0.638-0.135z" fill="#000"/>
<path d="m289.75 169.81c0.367 0.107 3.201-1.13 3.777-1.154 0.577-0.023 4.545-1.487 6.158-2.778 1.614-1.291 2.942-4.654 2.883-5.191-0.06-0.538-1.66-2.509-1.843-2.634-0.182-0.127-3.901 0.368-3.901 0.368s1.195 0.167 1.958 0.649c0.764 0.481 1.657 1.457 1.314 2.581-0.343 1.122-1.066 2.193-3.628 3.692-2.562 1.498-7.336 2.937-7.336 2.937s-0.824 0.991-0.482 1.21c0.341 0.218 1.1 0.32 1.1 0.32z" fill="#000"/>
<path d="m296.28 166.35c6e-3 -0.26 1.364-1.507 1.496-1.844 0.131-0.338 1.862-2.182 3.01-2.677 1.149-0.495 3.561-0.061 3.891 0.172 0.332 0.232 1.267 1.914 1.311 2.069s-1.02 2.205-1.02 2.205 0.135-0.777-0.019-1.412c-0.155-0.634-0.598-1.527-1.383-1.733-0.785-0.205-1.615-0.163-3.085 0.824-1.471 0.989-3.348 3.326-3.348 3.326s-0.799 0.131-0.87-0.154c-0.07-0.284 0.017-0.776 0.017-0.776z" fill="#000"/>
<path d="m233.46 175.2s9.144-0.951 10.253-0.964c1.108-0.013 3.229-3.769 3.229-3.769l0.785-1.978s-0.769-0.739 0.629-0.526c1.398 0.214 4.32 0.832 5.188 1.51 0.868 0.679 6.723 4.886 7.203 5.4s6.252 3.962 6.252 3.962 2.687 1.799 4.206 1.715c0.665-0.037 1.618-0.315 1.745-0.95 0.21-1.062-1.303-1.532-2.1-2.526-0.797-0.993-1.236-4.421-1.236-4.421s2.369-2.74 0.054-2.654c-2.316 0.088-9.812-1.745-11.012-2.082-1.2-0.336-4.46-2.098-6.119-2.285-1.658-0.186-4.327-0.421-5.245-0.12-0.918 0.3-1.08 0.266-1.08 0.266s-0.076-1.171-1.107-1.884c-1.03-0.713-3.353-0.215-4.497-0.045s-5.91 0.564-7.033 1.398-3.278 2.852-2.892 4.912c0.387 2.062 2.777 5.041 2.777 5.041z" fill="#DF7126" stroke="#000" stroke-width="1.127"/>
<path d="m157.95 223.53s-4.702 7.663-5.175 8.635c-0.475 0.971-4.88 1.276-4.88 1.276l-2.181-0.132s-0.373-0.986-0.756 0.335c-0.382 1.321-1.02 4.154-0.746 5.201 0.275 1.048 1.78 7.963 2.061 8.6 0.282 0.637 1.11 7.161 1.11 7.161s0.566 3.119-0.146 4.422c-0.311 0.572-0.97 1.295-1.618 1.141-1.083-0.257-0.893-1.786-1.492-2.903-0.599-1.115-3.63-2.931-3.63-2.931s-3.557 0.947-2.51-1.058 2.451-9.376 2.635-10.574c0.185-1.197-0.108-4.805 0.408-6.345 0.517-1.54 1.409-3.99 2.073-4.673 0.664-0.685 0.7-0.842 0.7-0.842s-1.066-0.555-1.305-1.76c-0.239-1.206 1.196-3.046 1.832-3.983s2.991-4.973 4.242-5.616c1.249-0.642 4.039-1.701 5.81-0.502 1.771 1.2 3.568 4.548 3.568 4.548z" fill="#DF7126" stroke="#000" stroke-width="1.127"/>
<path d="m145.69 255.11c-0.039 0.362-1.115 3.362-1.995 4.895-0.916 1.597-1.949 3.2-3.371 4.399-0.415 0.35-0.912 0.884-1.448 0.766-1.033-0.227-0.953-1.97-1.862-2.497-0.727-0.422-2.033 0.346-2.52-0.327-0.397-0.55 0.019-1.438 0.443-1.968 1.027-1.281 3.148-1.212 4.489-2.183 1.408-1.02 3.063-2.65 3.603-3.732 0.541-1.08-0.989-2.971 0.359-2.726 1.349 0.243 2.746 1.404 2.794 2.322 0.049 0.918-0.492 1.051-0.492 1.051z" fill="#000"/>
<path d="m139.12 261.97c-0.041 0.237-0.902 2.225-1.568 3.253-0.693 1.071-1.467 2.152-2.491 2.985-0.298 0.242-0.66 0.608-1.023 0.552-0.699-0.108-0.572-1.242-1.174-1.549-0.481-0.245-1.407 0.304-1.713-0.115-0.25-0.341 0.071-0.933 0.384-1.293 0.756-0.872 2.207-0.908 3.166-1.59 1.006-0.716 2.207-1.837 2.622-2.56 0.415-0.722-0.556-1.89 0.358-1.784 0.914 0.107 1.824 0.807 1.819 1.4-4e-3 0.593-0.38 0.701-0.38 0.701z" fill="#000"/>
<path d="m134 267.46c-0.066 0.191-1.013 1.677-1.673 2.396-0.687 0.749-1.438 1.486-2.346 1.956-0.265 0.137-0.598 0.363-0.869 0.233-0.523-0.251-0.264-1.183-0.683-1.581-0.336-0.318-1.129-0.067-1.305-0.491-0.144-0.347 0.188-0.775 0.481-1.008 0.707-0.564 1.831-0.262 2.667-0.619 0.879-0.376 1.965-1.05 2.388-1.567 0.422-0.517-0.16-1.728 0.53-1.428 0.689 0.299 1.291 1.101 1.203 1.603s-0.393 0.506-0.393 0.506z" fill="#000"/>
<path d="m129.44 270.89c-0.053 0.368-2.394 2.351-2.656 2.849-0.263 0.499-3.288 3.385-5.171 4.27-1.882 0.884-5.589 0.653-6.068 0.378-0.479-0.277-1.66-2.51-1.702-2.723-0.042-0.212 1.972-3.284 1.972-3.284s-0.343 1.122-0.209 1.996 0.677 2.068 1.873 2.233c1.195 0.166 2.501-0.024 4.973-1.658 2.473-1.634 5.811-5.243 5.811-5.243s1.273-0.313 1.335 0.079-0.158 1.103-0.158 1.103z" fill="#000"/>
<path d="m123.48 275.21c-0.246-0.103-1.981 0.575-2.352 0.551-0.37-0.026-2.82 0.733-3.763 1.538s-1.541 3.112-1.461 3.501 1.267 1.914 1.394 2.018c0.127 0.102 2.492 0.019 2.492 0.019s-0.785-0.206-1.315-0.606c-0.531-0.4-1.183-1.162-1.048-1.94 0.134-0.778 0.518-1.491 2.058-2.376 1.539-0.885 4.512-1.566 4.512-1.566s0.456-0.649 0.219-0.83c-0.238-0.18-0.736-0.309-0.736-0.309z" fill="#000"/>
<path d="m145.69 255.11c-0.039 0.362-1.115 3.362-1.995 4.895-0.916 1.597-1.949 3.2-3.371 4.399-0.415 0.35-0.912 0.884-1.448 0.766-1.033-0.227-0.953-1.97-1.862-2.497-0.727-0.422-2.033 0.346-2.52-0.327-0.397-0.55 0.019-1.438 0.443-1.968 1.027-1.281 3.148-1.212 4.489-2.183 1.408-1.02 3.063-2.65 3.603-3.732 0.541-1.08-0.989-2.971 0.359-2.726 1.349 0.243 2.746 1.404 2.794 2.322 0.049 0.918-0.492 1.051-0.492 1.051z" fill="#000"/>
<path d="m139.12 261.97c-0.041 0.237-0.902 2.225-1.568 3.253-0.693 1.071-1.467 2.152-2.491 2.985-0.298 0.242-0.66 0.608-1.023 0.552-0.699-0.108-0.572-1.242-1.174-1.549-0.481-0.245-1.407 0.304-1.713-0.115-0.25-0.341 0.071-0.933 0.384-1.293 0.756-0.872 2.207-0.908 3.166-1.59 1.006-0.716 2.207-1.837 2.622-2.56 0.415-0.722-0.556-1.89 0.358-1.784 0.914 0.107 1.824 0.807 1.819 1.4-4e-3 0.593-0.38 0.701-0.38 0.701z" fill="#000"/>
<path d="m134 267.46c-0.066 0.191-1.013 1.677-1.673 2.396-0.687 0.749-1.438 1.486-2.346 1.956-0.265 0.137-0.598 0.363-0.869 0.233-0.523-0.251-0.264-1.183-0.683-1.581-0.336-0.318-1.129-0.067-1.305-0.491-0.144-0.347 0.188-0.775 0.481-1.008 0.707-0.564 1.831-0.262 2.667-0.619 0.879-0.376 1.965-1.05 2.388-1.567 0.422-0.517-0.16-1.728 0.53-1.428 0.689 0.299 1.291 1.101 1.203 1.603s-0.393 0.506-0.393 0.506z" fill="#000"/>
<path d="m129.44 270.89c-0.053 0.368-2.394 2.351-2.656 2.849-0.263 0.499-3.288 3.385-5.171 4.27-1.882 0.884-5.589 0.653-6.068 0.378-0.479-0.277-1.66-2.51-1.702-2.723-0.042-0.212 1.972-3.284 1.972-3.284s-0.343 1.122-0.209 1.996 0.677 2.068 1.873 2.233c1.195 0.166 2.501-0.024 4.973-1.658 2.473-1.634 5.811-5.243 5.811-5.243s1.273-0.313 1.335 0.079-0.158 1.103-0.158 1.103z" fill="#000"/>
<path d="m123.48 275.21c-0.246-0.103-1.981 0.575-2.352 0.551-0.37-0.026-2.82 0.733-3.763 1.538s-1.541 3.112-1.461 3.501 1.267 1.914 1.394 2.018c0.127 0.102 2.492 0.019 2.492 0.019s-0.785-0.206-1.315-0.606c-0.531-0.4-1.183-1.162-1.048-1.94 0.134-0.778 0.518-1.491 2.058-2.376 1.539-0.885 4.512-1.566 4.512-1.566s0.456-0.649 0.219-0.83c-0.238-0.18-0.736-0.309-0.736-0.309z" fill="#000"/>
<path d="m157.95 223.53s-4.702 7.663-5.175 8.635c-0.475 0.971-4.88 1.276-4.88 1.276l-2.182-0.132s-0.372-0.986-0.755 0.335-1.02 4.154-0.746 5.201c0.275 1.048 1.78 7.963 2.061 8.6 0.282 0.637 1.109 7.161 1.109 7.161s0.567 3.119-0.145 4.422c-0.311 0.572-0.97 1.295-1.618 1.141-1.083-0.257-0.893-1.786-1.492-2.903-0.599-1.115-3.63-2.931-3.63-2.931s-3.557 0.947-2.51-1.058c1.046-2.005 2.451-9.376 2.635-10.574 0.185-1.197-0.108-4.805 0.408-6.345 0.517-1.54 1.409-3.99 2.073-4.673 0.664-0.685 0.7-0.842 0.7-0.842s-1.066-0.555-1.305-1.76 1.196-3.046 1.832-3.983 2.991-4.973 4.24-5.616c1.251-0.642 4.041-1.701 5.811-0.502 1.771 1.2 3.569 4.548 3.569 4.548z" fill="#DF7126" stroke="#000" stroke-width="1.127"/>
<path d="m300.49 252.84c2.4-2.205 4.513 6.684 7.746 6.01 1.064-0.222 1.266-1.786 1.486-2.819 0.179-0.85-0.62-1.839-0.182-2.595 0.424-0.732 2.351-0.324 2.303-1.161-0.123-2.117-4.004-1.755-6.12-2.285-2.097-0.526-4.271-0.868-6.437-0.868-0.561 0-1.423-0.265-1.666 0.225-0.493 0.993 0.938 2.062 1.741 2.842 0.309 0.301 0.832 0.964 1.129 0.651z" fill="#000"/>
<path d="m300.49 252.84c2.4-2.205 4.513 6.684 7.746 6.01 1.064-0.222 1.266-1.786 1.486-2.819 0.179-0.85-0.62-1.839-0.182-2.595 0.424-0.732 2.351-0.324 2.303-1.161-0.123-2.117-4.004-1.755-6.12-2.285-2.097-0.526-4.271-0.868-6.437-0.868-0.561 0-1.423-0.265-1.666 0.225-0.493 0.993 0.938 2.062 1.741 2.842 0.309 0.301 0.832 0.964 1.129 0.651z" stroke="#000" stroke-width="1.127"/>
<path d="m262.22 215.46c4.149 0.144 8.424 1.681 12.439 0.654 1.06-0.272 1.692-1.924 2.769-1.723 1.54 0.287 2.026 2.356 2.736 3.712 2.267 4.338 3.154 9.233 4.703 13.859 1.503 4.486 2.624 9.103 4.45 13.475 1.066 2.55 1.566 5.673 3.778 7.395 1.599 1.245 4.203 2.435 5.972 1.43 1.817-1.035 1.353-3.893 1.671-5.914 0.186-1.187-0.392-2.511 0.13-3.6 0.602-1.256 3.577-1.459 3.179-2.79-0.71-2.376-5.444 0.145-7.539-1.265-4.507-3.037-5.765-9.069-8.29-13.794-2.293-4.291-2.949-9.537-6.215-13.189-1.355-1.515-3.857-1.742-5.222-3.249-1.199-1.324-1.033-3.542-2.325-4.779-1.854-1.778-4.53-2.807-7.113-3.156-3.057-0.412-7.205-0.96-9.151 1.362-2.5 2.983-2.214 8.846 0.639 11.515 0.813 0.76 2.26 0.018 3.389 0.057z" fill="#DF7126" stroke="#000" stroke-width="1.127"/>
<path d="m308.61 256.24c1.774-1.714 3.86 5.73 6.361 5.319 0.823-0.135 0.905-1.418 1.027-2.263 0.1-0.692-0.574-1.547-0.268-2.152 0.297-0.586 1.827-0.161 1.749-0.856-0.198-1.754-3.222-1.632-4.906-2.167-1.669-0.529-3.389-0.911-5.086-1.009-0.44-0.027-1.129-0.284-1.295 0.109-0.338 0.799 0.834 1.748 1.501 2.429 0.257 0.263 0.699 0.834 0.917 0.59z" fill="#000"/>
<path d="m308.61 256.24c1.774-1.714 3.86 5.73 6.361 5.319 0.823-0.135 0.905-1.418 1.027-2.263 0.1-0.692-0.574-1.547-0.268-2.152 0.297-0.586 1.827-0.161 1.749-0.856-0.198-1.754-3.222-1.632-4.906-2.167-1.669-0.529-3.389-0.911-5.086-1.009-0.44-0.027-1.129-0.284-1.295 0.109-0.338 0.799 0.834 1.748 1.501 2.429 0.257 0.263 0.699 0.834 0.917 0.59z" stroke="#000" stroke-width=".90554"/>
<path d="m315.82 260.82c1.776-1.713 3.861 5.73 6.362 5.321 0.823-0.135 0.906-1.419 1.027-2.263 0.1-0.694-0.574-1.549-0.267-2.153 0.297-0.586 1.827-0.162 1.748-0.856-0.199-1.755-3.222-1.632-4.906-2.166-1.669-0.531-3.388-0.912-5.086-1.011-0.44-0.025-1.128-0.284-1.296 0.11-0.337 0.799 0.835 1.747 1.503 2.429 0.257 0.262 0.699 0.834 0.915 0.589z" fill="#000"/>
<path d="m315.82 260.82c1.776-1.713 3.861 5.73 6.362 5.321 0.823-0.135 0.906-1.419 1.027-2.263 0.1-0.694-0.574-1.549-0.267-2.153 0.297-0.586 1.827-0.162 1.748-0.856-0.199-1.755-3.222-1.632-4.906-2.166-1.669-0.531-3.388-0.912-5.086-1.011-0.44-0.025-1.128-0.284-1.296 0.11-0.337 0.799 0.835 1.747 1.503 2.429 0.257 0.262 0.699 0.834 0.915 0.589z" stroke="#000" stroke-width=".90554"/>
<path d="m322.87 261.86c1.219 0.445 2.039 1.583 3.155 2.233 1.867 1.09 4.139 1.501 5.881 2.771 1.063 0.775 2.487 1.596 2.67 2.874 0.303 2.109-1.294 4.288-2.906 5.734-1.202 1.077-4.563 1.755-4.563 1.755s2.866-1.384 3.617-2.656c0.567-0.96 0.787-2.255 0.402-3.296-0.625-1.691-2.582-2.586-4.007-3.734-1.588-1.28-3.698-1.974-5.038-3.498-0.587-0.669-1.723-1.634-1.211-2.36 0.377-0.536 1.374-0.053 2 0.177z" fill="#000"/>
<path d="m203.69 314.6c-3.068 1.198 4.386 6.763 2.406 9.331-0.651 0.846-2.201 0.373-3.262 0.135-0.871-0.195-1.466-1.312-2.357-1.241-0.862 0.068-1.283 1.937-2.049 1.545-1.932-0.99 0.024-4.258 0.409-6.345 0.381-2.068 0.967-4.126 1.869-6.036 0.234-0.494 0.344-1.365 0.905-1.375 1.136-0.02 1.543 1.686 1.939 2.719 0.152 0.398 0.557 1.136 0.14 1.267z" fill="#000"/>
<path d="m203.69 314.6c-3.068 1.198 4.386 6.763 2.406 9.331-0.651 0.846-2.201 0.373-3.262 0.135-0.871-0.195-1.466-1.312-2.357-1.241-0.862 0.068-1.283 1.937-2.049 1.545-1.932-0.99 0.024-4.258 0.409-6.345 0.381-2.068 0.967-4.126 1.869-6.036 0.234-0.494 0.344-1.365 0.905-1.375 1.136-0.02 1.543 1.686 1.939 2.719 0.152 0.398 0.557 1.136 0.14 1.267z" stroke="#000" stroke-width="1.127"/>
<path d="m184.6 265.29c-1.594 3.717-1.934 8.125-4.57 11.236-0.696 0.821-2.509 0.689-2.77 1.722-0.372 1.478 1.365 2.769 2.341 3.959 3.122 3.806 7.342 6.628 11.033 9.921 3.579 3.193 7.441 6.106 10.779 9.537 1.947 2.001 4.667 3.743 5.36 6.411 0.5 1.929 0.531 4.72-1.149 5.86-1.727 1.171-4.214-0.43-6.24-0.992-1.191-0.329-2.192-1.391-3.43-1.385-1.429 7e-3 -2.858 2.545-3.941 1.639-1.93-1.615 2.405-4.738 1.955-7.172-0.969-5.238-6.1-8.86-9.476-13.055-3.069-3.809-7.714-6.573-9.776-10.973-0.856-1.826-0.026-4.126-0.871-5.957-0.741-1.608-2.889-2.386-3.512-4.041-0.893-2.375-0.742-5.163 7e-3 -7.584 0.887-2.867 2.102-6.751 5.089-7.499 3.839-0.96 9.217 1.735 10.529 5.362 0.374 1.033-0.924 1.999-1.358 3.011z" fill="#DF7126" stroke="#000" stroke-width="1.127"/>
<path d="m203.5 323.17c-2.347 0.851 3.764 5.79 2.337 7.824-0.47 0.669-1.708 0.207-2.55-0.037-0.692-0.202-1.212-1.152-1.907-1.133-0.673 0.017-0.912 1.543-1.53 1.184-1.563-0.906-0.189-3.52 0.012-5.227 0.199-1.692 0.558-3.367 1.173-4.904 0.16-0.399 0.204-1.113 0.643-1.096 0.889 0.035 1.291 1.464 1.65 2.336 0.14 0.335 0.492 0.964 0.172 1.053z" fill="#000"/>
<path d="m203.5 323.17c-2.347 0.851 3.764 5.79 2.337 7.824-0.47 0.669-1.708 0.207-2.55-0.037-0.692-0.202-1.212-1.152-1.907-1.133-0.673 0.017-0.912 1.543-1.53 1.184-1.563-0.906-0.189-3.52 0.012-5.227 0.199-1.692 0.558-3.367 1.173-4.904 0.16-0.399 0.204-1.113 0.643-1.096 0.889 0.035 1.291 1.464 1.65 2.336 0.14 0.335 0.492 0.964 0.172 1.053z" stroke="#000" stroke-width=".90554"/>
<path d="m204.78 331.44c-2.346 0.85 3.764 5.791 2.338 7.824-0.47 0.669-1.708 0.208-2.551-0.037-0.691-0.202-1.211-1.151-1.906-1.133-0.673 0.017-0.913 1.542-1.531 1.184-1.562-0.906-0.187-3.52 0.013-5.227 0.198-1.692 0.558-3.367 1.173-4.905 0.159-0.398 0.204-1.112 0.643-1.095 0.889 0.035 1.29 1.464 1.651 2.336 0.139 0.336 0.491 0.963 0.17 1.053z" fill="#000"/>
<path d="m204.78 331.44c-2.346 0.85 3.764 5.791 2.338 7.824-0.47 0.669-1.708 0.208-2.551-0.037-0.691-0.202-1.211-1.151-1.906-1.133-0.673 0.017-0.913 1.542-1.531 1.184-1.562-0.906-0.187-3.52 0.013-5.227 0.198-1.692 0.558-3.367 1.173-4.905 0.159-0.398 0.204-1.112 0.643-1.095 0.889 0.035 1.29 1.464 1.651 2.336 0.139 0.336 0.491 0.963 0.17 1.053z" stroke="#000" stroke-width=".90554"/>
<path d="m202.83 338.08c-0.091 1.26 0.635 2.457 0.78 3.711 0.243 2.1-0.319 4.274 0.146 6.339 0.284 1.259 0.462 2.857 1.582 3.551 1.852 1.145 4.56 0.647 6.587-0.173 1.51-0.61 3.546-3.289 3.546-3.289s-2.49 1.949-3.997 2.081c-1.136 0.1-2.441-0.247-3.257-1.02-1.325-1.254-1.348-3.353-1.831-5.088-0.538-1.933-0.31-4.082-1.181-5.897-0.382-0.797-0.814-2.2-1.707-2.052-0.66 0.109-0.622 1.189-0.668 1.837z" fill="#000"/>
<path d="m174.7 137.48c-1.244-0.13-1.868-2.154-1.394-4.522 0.475-2.368 1.868-4.183 3.112-4.054 1.244 0.13 1.869 2.154 1.394 4.522-0.474 2.368-1.867 4.183-3.112 4.054z" fill="#DF7126" stroke="#000" stroke-linecap="round" stroke-linejoin="bevel" stroke-width="1.6081"/>
<path d="m176 130.9c-1.08-0.112-1.622-1.869-1.209-3.924 0.413-2.056 1.624-3.632 2.704-3.52 1.081 0.112 1.622 1.869 1.209 3.924-0.413 2.056-1.624 3.632-2.704 3.52z" fill="#DF7126" stroke="#000" stroke-linecap="round" stroke-linejoin="bevel" stroke-width="1.3961"/>
<path d="m177.08 124.94c-1.08-0.111-1.621-1.868-1.208-3.924 0.412-2.055 1.623-3.631 2.703-3.519 1.081 0.111 1.622 1.868 1.21 3.924-0.413 2.056-1.624 3.631-2.705 3.519z" fill="#DF7126" stroke="#000" stroke-linecap="round" stroke-linejoin="bevel" stroke-width="1.3961"/>
<path d="m179.25 118.36c-1.058 0.238-2.165-1.249-2.471-3.322-0.306-2.074 0.305-3.947 1.364-4.186 1.057-0.238 2.164 1.25 2.47 3.323s-0.305 3.946-1.363 4.185z" fill="#DF7126" stroke="#000" stroke-linecap="round" stroke-linejoin="bevel" stroke-width="1.3961"/>
<path d="m178.84 111.09c-1.059 0.239-2.165-1.249-2.471-3.322-0.305-2.073 0.304-3.947 1.363-4.185s2.164 1.249 2.47 3.322-0.304 3.947-1.362 4.185z" fill="#000" stroke="#000" stroke-linecap="round" stroke-linejoin="bevel" stroke-width="1.3961"/>
<path d="m178.15 103.41c-0.773 0.148-1.642-1.034-1.942-2.64-0.3-1.6049 0.082-3.0259 0.854-3.1733 0.772-0.1475 1.641 1.0343 1.941 2.6393 0.3 1.606-0.082 3.027-0.853 3.174z" fill="#000" stroke="#000" stroke-linecap="round" stroke-linejoin="bevel" stroke-width="1.0486"/>
<path d="m177.32 97.823c-0.656 0.1339-1.375-0.8396-1.605-2.1744s0.115-2.5253 0.771-2.6592c0.656-0.1338 1.375 0.8396 1.605 2.1744s-0.115 2.5254-0.771 2.6592z" fill="#000" stroke="#000" stroke-linecap="round" stroke-linejoin="bevel" stroke-width=".88172"/>
<path d="m148.98 153.81c0.398-1.151-1.24-2.545-3.658-3.114s-4.699-0.097-5.097 1.054c-0.397 1.151 1.241 2.544 3.658 3.114 2.418 0.568 4.7 0.096 5.097-1.054z" fill="#DF7126" stroke="#000" stroke-linecap="round" stroke-linejoin="bevel" stroke-width="1.6081"/>
<path d="m142.27 152.21c0.346-0.999-1.076-2.209-3.175-2.701-2.1-0.493-4.081-0.082-4.427 0.917-0.345 0.998 1.076 2.208 3.176 2.7 2.099 0.494 4.081 0.083 4.426-0.916z" fill="#DF7126" stroke="#000" stroke-linecap="round" stroke-linejoin="bevel" stroke-width="1.3961"/>
<path d="m136.23 150.69c0.346-0.999-1.076-2.208-3.175-2.701s-4.081-0.082-4.427 0.917c-0.345 0.999 1.077 2.208 3.176 2.701 2.099 0.492 4.081 0.082 4.426-0.917z" fill="#DF7126" stroke="#000" stroke-linecap="round" stroke-linejoin="bevel" stroke-width="1.3961"/>
<path d="m129.16 149.85c0.664-0.834-0.269-2.428-2.085-3.562-1.817-1.133-3.827-1.376-4.492-0.543-0.664 0.834 0.269 2.429 2.085 3.562 1.816 1.134 3.827 1.377 4.492 0.543z" fill="#DF7126" stroke="#000" stroke-linecap="round" stroke-linejoin="bevel" stroke-width="1.3961"/>
<path d="m122.51 146.46c0.665-0.834-0.269-2.428-2.085-3.562-1.816-1.133-3.827-1.376-4.492-0.543-0.664 0.834 0.269 2.429 2.085 3.562 1.817 1.134 3.827 1.377 4.492 0.543z" fill="#000" stroke="#000" stroke-linecap="round" stroke-linejoin="bevel" stroke-width="1.3961"/>
<path d="m115.6 142.65c0.46-0.619-0.286-1.878-1.666-2.811-1.38-0.934-2.872-1.189-3.331-0.57-0.46 0.619 0.285 1.877 1.665 2.811s2.872 1.189 3.332 0.57z" fill="#000" stroke="#000" stroke-linecap="round" stroke-linejoin="bevel" stroke-width="1.0486"/>
<path d="m110.71 139.59c0.399-0.523-0.214-1.562-1.369-2.321-1.156-0.759-2.416-0.951-2.815-0.429-0.399 0.523 0.215 1.562 1.37 2.322 1.155 0.759 2.415 0.951 2.814 0.428z" fill="#000" stroke="#000" stroke-linecap="round" stroke-linejoin="bevel" stroke-width=".88172"/>
<path d="m148.06 165.66c2.593-1.614 3.411-4.864 1.826-7.261-1.586-2.396-4.975-3.03-7.569-1.417-2.594 1.614-3.412 4.866-1.826 7.262s4.974 3.031 7.569 1.416z" fill="#000"/>
<path d="m141.79 169.06s-0.959-0.9-0.929-1.293c0.031-0.394 2.112-5.058 2.091-5.419s2.523-5.313 2.523-5.313 0.749-1.288 1.006-1.449 3.402-5.635 3.402-5.635l3.68-3.786 6.546-4.073 4.806 7.977-2.53 4.643-9.985 4.266s-8.152 9.451-8.282 9.532c-0.128 0.08-2.328 0.55-2.328 0.55z" fill="#000"/>
<path d="m142.87 168.48s-0.788-0.696-0.843-1.168c-0.209-1.801 1.346-3.383 2.112-5.037 0.778-1.678 1.55-3.368 2.518-4.949 0.291-0.477 0.671-0.897 0.986-1.359 1.172-1.723 2.048-3.639 3.354-5.268 1.05-1.309 2.245-2.523 3.568-3.574 1.926-1.527 6.281-3.906 6.281-3.906l4.326 7.223s-1.247 3.216-2.507 4.335c-2.568 2.281-6.73 2.152-9.527 4.167-3.283 2.366-7.934 8.896-8.058 8.973s-2.21 0.563-2.21 0.563z" fill="#DF7126"/>
<path d="m170.05 194.44 29.283-18.219 4.289-2.108 2.934 2.091-6.369 10.677-2.399 6.527 51.588 81.859 0.515 5.463-5.169-3.125-54.621-79.414-14.375 0.924-7.397-0.248 1.721-4.427z" fill="#8F974A" stroke="#000" stroke-width="1.7996"/>
<path d="m142.75 213.62c0.494-5.933 3.625-11.586 7.614-15.837 2.339-2.492 5.727-3.891 8.986-5.049 3.64-1.294 7.634-1.551 11.513-2.02 2.906-0.351 5.859-1.131 8.787-0.594 4.126 0.758 8.349 2.472 11.596 5.239 3.572 3.043 5.154 7.804 7.742 11.698 10.691 16.09 22.499 31.785 32.166 48.211 14.121 22.346 14.33 22.62 15.792 28.619 0 0-4.377 3.423-6.805 4.775-2.645 1.472-5.433 2.771-8.378 3.587-4.332 1.202-8.88 2.175-13.449 1.871-5.571-0.372-11.117-2.21-16.328-4.461-5.96-2.576-11.452-6.299-16.703-10.183-5.009-3.704-9.769-7.828-13.986-12.416-4.328-4.706-7.944-10.025-11.463-15.339-3.561-5.377-6.9-10.923-9.732-16.686-1.788-3.641-3.261-7.425-4.555-11.244-1.133-3.34-3.084-6.735-2.797-10.171z" fill="#FBF236" stroke="#000" stroke-width="1.0922"/>
<path d="m149.14 214.33s0.865 6.711 1.843 10.016c1.256 4.249 3.001 8.447 5.121 12.441 2.62 4.931 5.848 9.597 9.289 14.035 3.546 4.571 7.634 8.688 11.622 12.861 4.45 8.3 15.81 13.66 13.735 15.387 0 0-2.706-0.26-3.885-0.865-6.104-3.13-10.499-8.731-15.265-13.665-3.317-3.434-6.433-7.115-9.204-11.016-3.394-4.778-6.258-9.908-9.003-15.05-1.541-2.887-3.299-5.765-4.177-8.843-0.815-2.856-0.948-5.795-0.927-8.633 0.018-2.287 0.851-6.668 0.851-6.668z" fill="#000" stroke="#000" stroke-width=".74898"/>
<path d="m213.96 277.08c9.989-6.216 7.321-27.524-5.961-47.594-13.282-20.071-32.147-31.303-42.136-25.087-9.991 6.215-7.322 27.524 5.96 47.594s32.148 31.302 42.137 25.087z" fill="#EEC39A" opacity=".62"/>
<path d="m155.47 199.52s0.551 9.603 1.678 14.271c1.448 6.001 3.658 11.876 6.475 17.412 3.479 6.838 7.931 13.224 12.743 19.255 4.958 6.216 10.808 11.714 16.497 17.303 4.489 4.409 8.827 9.039 13.901 12.792 4.129 3.052 13.315 7.796 13.315 7.796l2.811 1.315s-11.381 0.166-16.471-2.005c-8.774-3.743-15.242-11.457-22.048-18.061-4.735-4.595-9.132-9.571-12.968-14.903-4.697-6.528-8.532-13.626-12.181-20.754-2.049-4-4.435-7.965-5.434-12.317-0.926-4.038-0.788-8.269-0.421-12.372 0.296-3.309 2.103-9.732 2.103-9.732z" fill="#000" stroke="#000" stroke-width="1.1176"/>
<path d="m163.37 203.52s1.705 9.09 3.417 13.379c2.625 6.576 10.38 18.62 10.38 18.62s11.072 13.958 16.966 20.648c5.001 5.678 10.062 11.335 15.594 16.524 5.159 4.837 9.914 10.55 16.354 13.563 3.126 1.463 10.185 1.895 10.185 1.895s-3.617-3.64-5.503-5.382c-5.074-4.687-10.848-8.657-15.624-13.635-5.34-5.563-9.637-11.997-14.441-18.006-4.973-6.222-10.032-12.38-14.89-18.687-4.182-5.43-8.38-10.856-12.269-16.487-1.973-2.856-4.201-5.609-5.605-8.764-1.132-2.54-2.198-8.013-2.198-8.013l-0.162-2.005c-3.04-0.392-2.023 4.839-2.204 6.35z" fill="#000"/>
<path d="m175.51 199.48c-1.643 1.842 1.678 4.689 2.895 6.862 5.121 9.151 11.991 17.284 18.358 25.668 6.905 9.091 13.906 18.137 21.505 26.688 5.363 6.035 10.113 12.967 16.962 17.332 0.609 0.389 2.048 0.726 2.048 0.726s-3.94-8.507-6.407-12.498c-3.728-6.033-8.329-11.519-12.614-17.194-6.682-8.851-13.836-17.361-20.414-26.284-3.554-4.822-6.075-10.427-10.288-14.717-2.136-2.174-4.643-4.096-7.418-5.401-1.44-0.677-3.592-2.343-4.627-1.182z" fill="#000"/>
<path d="m231.52 158.41c-5.768-2.036-12.373-1.633-18.022 0.112-3.311 1.023-6.033 3.426-8.477 5.815-2.729 2.67-4.634 6.084-6.692 9.308-1.539 2.414-3.501 4.692-4.216 7.497-1.01 3.953-1.163 8.388 0.078 12.404 1.364 4.416 5.169 7.794 7.742 11.698 10.628 16.128 20.423 33.076 31.794 48.442 15.066 21.757 15.237 22.057 20.251 25.844 0 0 5.033-2.431 7.313-4.008 2.482-1.717 4.862-3.633 6.855-5.89 2.931-3.316 5.739-6.92 7.357-11.074 1.973-5.064 2.561-10.719 2.621-16.25 0.07-6.327-1.133-12.719-2.586-18.966-1.386-5.958-3.268-11.873-5.811-17.501-2.61-5.775-6.089-11.179-9.604-16.495-3.559-5.38-7.366-10.633-11.59-15.531-2.668-3.094-5.602-5.969-8.642-8.701-2.66-2.389-5.031-5.525-8.371-6.704z" fill="#FBF236" stroke="#000" stroke-width="1.0922"/>
<path d="m229.52 164.33s5.931 3.558 8.622 5.798c3.46 2.878 6.669 6.165 9.53 9.699 3.531 4.363 6.561 9.152 9.287 14.035 2.809 5.03 4.965 10.349 7.216 15.603 5.926 7.381 6.218 19.627 8.702 18.519 0 0 0.883-2.494 0.808-3.786-0.391-6.684-3.811-12.892-6.451-19.149-1.837-4.354-3.99-8.635-6.493-12.703-3.064-4.983-6.68-9.644-10.358-14.206-2.063-2.562-4.029-5.31-6.55-7.367-2.338-1.909-5.037-3.251-7.706-4.415-2.153-0.938-6.607-2.028-6.607-2.028z" fill="#000" stroke="#000" stroke-width=".74898"/>
<path d="m261.33 247.61c-9.989 6.216-28.855-5.016-42.137-25.086-13.282-20.071-15.951-41.379-5.961-47.595 9.99-6.215 28.855 5.017 42.136 25.088 13.282 20.07 15.951 41.378 5.962 47.593z" fill="#EEC39A" opacity=".62"/>
<path d="m212.99 163.74s8.773 4.488 12.681 7.425c5.022 3.778 9.61 8.173 13.627 12.963 4.96 5.917 9.092 12.502 12.741 19.256 3.762 6.96 6.479 14.407 9.348 21.751 2.263 5.794 4.797 11.547 6.199 17.584 1.141 4.91 1.762 14.984 1.762 14.984l0.06 3.025s4.899-9.963 4.984-15.352c0.147-9.293-4.39-18.21-7.744-26.959-2.335-6.09-5.168-12.038-8.568-17.642-4.163-6.86-9.219-13.197-14.382-19.384-2.898-3.473-5.62-7.228-9.284-9.921-3.399-2.5-7.424-4.141-11.423-5.528-3.225-1.118-10.001-2.202-10.001-2.202z" fill="#000" stroke="#000" stroke-width="1.1176"/>
<path d="m213.45 172.37s7.812 5.291 11.12 8.588c5.07 5.055 13.131 16.909 13.131 16.909s8.472 15.575 12.289 23.558c3.239 6.774 6.435 13.592 8.993 20.631 2.386 6.562 5.76 13.134 5.901 20.066 0.069 3.365-2.467 9.767-2.467 9.767s-1.906-4.706-2.752-7.094c-2.281-6.425-3.597-13.169-6.273-19.453-2.991-7.024-7.232-13.493-10.865-20.232-3.76-6.976-7.425-14-11.313-20.91-3.349-5.949-6.686-11.911-10.345-17.684-1.855-2.93-3.509-6.041-5.881-8.594-1.909-2.056-6.597-5.275-6.597-5.275l-1.812-0.979c0.9-2.843 5.38 0.233 6.871 0.702z" fill="#000"/>
<path d="m204.6 181.38c2.411-0.68 3.698 3.433 5.228 5.411 6.444 8.328 11.208 17.772 16.414 26.878 5.645 9.874 11.209 19.816 16.06 30.076 3.423 7.242 7.942 14.317 9.181 22.172 0.111 0.7-0.173 2.108-0.173 2.108s-6.333-7.018-9.047-10.855c-4.103-5.8-7.329-12.141-10.864-18.283-5.514-9.578-10.511-19.43-16.135-28.946-3.039-5.141-7.245-9.7-9.51-15.2-1.149-2.789-1.906-5.8-1.973-8.79-0.035-1.55-0.7-4.142 0.819-4.571z" fill="#000"/>
<path d="m178.48 236.84c6.257-3.892 6.226-14.759-0.069-24.27-6.294-9.51-16.467-14.066-22.724-10.173-6.256 3.892-6.225 14.758 0.069 24.269 6.293 9.511 16.468 14.067 22.724 10.174z" fill="#fff" opacity=".317"/>
<path d="m203.99 248.54c4.712-2.932 4.553-11.318-0.353-18.732-4.907-7.415-12.703-11.049-17.414-8.118-4.712 2.932-4.554 11.319 0.353 18.733 4.906 7.414 12.702 11.048 17.414 8.117z" fill="#fff" opacity=".317"/>
<path d="m186.55 141.71c-2.595 1.614-5.982 0.98-7.568-1.416s-0.769-5.647 1.826-7.261c2.594-1.614 5.982-0.98 7.568 1.416s0.769 5.647-1.826 7.261z" fill="#000"/>
<path d="m192.36 137.6s-0.444-1.221-0.825-1.358c-0.383-0.136-5.621-0.246-5.951-0.415-0.331-0.169-6.034 0.011-6.034 0.011s-1.519 0.122-1.777 0.282c-0.258 0.161-6.701 0.651-6.701 0.651l-5.083 1.665-6.546 4.073 5.476 7.56 5.407-0.295 8.16-7.023s12.259-3.248 12.388-3.328 1.486-1.823 1.486-1.823z" fill="#000"/>
<path d="m191.35 138.31s-0.324-0.985-0.744-1.23c-1.601-0.935-3.733-0.223-5.602-0.237-1.897-0.014-3.803-0.039-5.69 0.156-0.568 0.058-1.119 0.219-1.684 0.303-2.104 0.316-4.265 0.288-6.337 0.762-1.665 0.38-3.301 0.927-4.837 1.656-2.234 1.059-6.28 3.906-6.28 3.906l4.97 6.824s3.534 0.241 5.108-0.403c3.21-1.313 4.823-5.036 7.877-6.661 3.586-1.908 11.647-3.286 11.77-3.363 0.124-0.077 1.449-1.713 1.449-1.713z" fill="#DF7126"/>
<path d="m162.19 147.19 24.715 37.659-7.654 6.459s-13.941 3.794-14.77 4.097c-0.827 0.303-9.342 4.252-10.047 4.615s-4.682 3.363-5.092 3.843-4.357 1.436-4.357 1.436-2.034-2.6-2.759-4.058c-1.731-3.478-3.028-7.204-3.7-10.975-0.814-4.572-1.336-9.376-0.342-13.812 0.943-4.21 3.55-7.813 5.821-11.422 1.596-2.538 3.446-4.92 5.453-7.143 2.61-2.89 5.443-5.604 8.52-8.001 1.313-1.022 4.212-2.698 4.212-2.698z" fill="#000"/>
<path d="m163.2 148.72 22.294 33.987-7.392 6.132s-13.253 3.841-14.042 4.141c-0.789 0.299-8.927 4.145-9.601 4.497-0.675 0.352-4.507 3.211-4.906 3.662-0.4 0.451-4.15 1.43-4.15 1.43s-1.847-2.339-2.492-3.661c-1.538-3.151-2.662-6.543-3.193-9.992-0.644-4.183-1.007-8.586 0.05-12.689 1.003-3.893 3.559-7.27 5.798-10.645 1.575-2.375 3.384-4.611 5.336-6.705 2.54-2.723 5.286-5.289 8.253-7.571 1.265-0.972 4.045-2.586 4.045-2.586z" fill="#DF7126"/>
<path d="m157.18 159.3c0.163 0.682-1.571 0.188-2.034 0.725-0.482 0.555-0.649 1.457-0.397 2.141 0.273 0.747 1.103 1.253 1.862 1.549 1.481 0.58 3.622-0.791 4.786 0.271 0.983 0.895 0.911 2.654 0.484 3.895-0.32 0.926-1.27 1.55-2.092 2.114-1.099 0.753-2.353 1.395-3.68 1.612-0.88 0.144-2.057-0.866-2.668-0.235-1.26 1.302-0.076 3.749 0.85 5.292 0.791 1.318 2.185 3.266 3.696 2.844 1.717-0.48 1.065-3.315 1.784-4.9 0.452-0.996 0.66-2.262 1.583-2.88 1.429-0.955 3.438-0.824 5.162-0.64 1.472 0.157 2.703 1.576 4.178 1.462 1.213-0.094 2.685-0.643 3.192-1.715 0.684-1.442-0.15-3.302-0.991-4.663-0.802-1.298-2.611-1.733-3.598-2.906-0.943-1.121-0.982-2.883-2.114-3.828-1.165-0.97-2.807-1.422-4.341-1.495-1.941-0.094-6.001-0.5-5.662 1.357z" fill="#000"/>
<path d="m152.71 180.9c-0.36-0.787-0.971-1.453-1.576-2.083-0.65-0.678-1.365-1.32-2.18-1.803-0.577-0.341-1.246-0.984-1.876-0.746-1.16 0.438-1.293 2.106-1.58 3.28-0.318 1.298-0.249 2.671-0.119 3.999 0.137 1.395 0.839 2.706 0.94 4.105 0.071 0.975-0.264 1.946-0.237 2.923 0.027 1.008-0.393 2.355 0.407 3.001 0.343 0.277 0.905 0.041 1.338-0.066 0.918-0.23 2.04-0.437 2.556-1.208 0.531-0.794 0.422-1.945 0.098-2.837-0.326-0.894-1.491-1.302-1.92-2.156-0.366-0.725-1.068-1.796-0.487-2.377 0.546-0.545 1.547 0.25 2.321 0.376 0.773 0.124 1.666 0.792 2.321 0.374 0.637-0.407 0.53-1.418 0.546-2.158 0.017-0.893-0.18-1.808-0.552-2.624z" fill="#000"/>
<path d="m162.95 179.67c0.225-0.807 1.377-1.266 2.239-1.258 0.491 5e-3 0.898 0.419 1.259 0.741 0.662 0.594 1.305 1.296 1.583 2.129 0.2 0.601 0.282 1.327-2e-3 1.896-0.52 1.039-1.738 1.63-2.802 2.149-1.009 0.492-2.198 0.516-3.275 0.852-1.076 0.337-2.185 0.63-3.174 1.163-0.618 0.333-1.19 0.761-1.685 1.251-0.491 0.488-0.548 1.756-1.244 1.654-0.488-0.071-0.525-0.882-0.48-1.359 0.088-0.93 0.79-1.735 1.421-2.441 0.586-0.656 1.395-1.087 2.123-1.592 0.694-0.48 1.468-0.847 2.136-1.362 0.561-0.433 1.21-0.833 1.557-1.442 0.23-0.406 0.225-0.903 0.285-1.362 0.045-0.338 0.14-0.688 0.059-1.019z" fill="#000"/>
<path d="m153.04 168.49c1.298-2.19 1.14-4.756-0.352-5.732-1.491-0.976-3.754 7e-3 -5.052 2.197-1.296 2.19-1.14 4.756 0.353 5.732 1.492 0.976 3.754-7e-3 5.051-2.197z" fill="#000"/>
<path d="m161.91 147.36 25.007 37.477 9.245-4.054s9.367-10.708 9.996-11.31c0.63-0.604 7.88-6.464 8.515-6.934 0.634-0.469 5.104-2.726 5.724-2.886 0.621-0.162 3.162-3.243 3.162-3.243s-1.591-2.876-2.655-4.123c-2.539-2.974-5.492-5.67-8.748-7.833-3.948-2.624-8.233-5.086-12.806-6.058-4.341-0.923-8.804-0.127-13.134 0.371-3.046 0.349-6.049 0.987-8.969 1.829-3.798 1.096-7.522 2.463-11.052 4.176-1.506 0.731-4.285 2.588-4.285 2.588z" fill="#000"/>
<path d="m162.92 148.89 22.573 33.813 8.83-3.962s9.124-10.079 9.734-10.649c0.61-0.572 7.606-6.142 8.217-6.59 0.612-0.447 4.888-2.634 5.477-2.798 0.591-0.164 3.071-3.061 3.071-3.061s-1.424-2.603-2.393-3.722c-2.315-2.67-5.027-5.073-8.039-6.979-3.653-2.311-7.629-4.465-11.916-5.243-4.068-0.738-8.3 0.107-12.397 0.674-2.882 0.399-5.733 1.061-8.51 1.91-3.611 1.104-7.161 2.454-10.536 4.119-1.44 0.71-4.111 2.488-4.111 2.488z" fill="#DF7126"/>
<path d="m175.35 148c0.571 0.429 0.829-1.305 1.526-1.491 0.722-0.193 1.637 0.037 2.174 0.543 0.586 0.553 0.713 1.494 0.676 2.286-0.074 1.548-2.251 2.864-1.741 4.332 0.43 1.239 2.109 1.909 3.45 2.05 1.002 0.105 1.982-0.473 2.854-0.964 1.164-0.655 2.289-1.491 3.044-2.571 0.502-0.716 0.045-2.174 0.892-2.449 1.746-0.568 3.548 1.494 4.607 2.954 0.907 1.247 2.152 3.287 1.127 4.443-1.165 1.314-3.552-0.444-5.338-0.47-1.121-0.016-2.395-0.36-3.36 0.196-1.491 0.861-2.204 2.686-2.75 4.283-0.466 1.362 0.352 3.039-0.371 4.291-0.594 1.031-1.722 2.099-2.939 2.1-1.637 1e-3 -3.032-1.508-3.958-2.817-0.882-1.248-0.536-3.024-1.224-4.382-0.659-1.299-2.295-2.068-2.708-3.459-0.425-1.431-0.164-3.066 0.406-4.449 0.722-1.751 2.032-5.498 3.633-4.426z" fill="#000"/>
<path d="m197.46 153.06c-0.588-0.645-0.957-1.461-1.296-2.257-0.366-0.856-0.669-1.753-0.781-2.672-0.081-0.651-0.405-1.51 0.081-1.965 0.895-0.84 2.513-0.263 3.734-0.026 1.349 0.26 2.607 0.893 3.797 1.561 1.252 0.702 2.189 1.868 3.457 2.539 0.886 0.469 1.935 0.579 2.84 1.01 0.935 0.444 2.372 0.634 2.645 1.609 0.116 0.418-0.338 0.815-0.62 1.151-0.598 0.714-1.26 1.617-2.198 1.75-0.966 0.138-1.999-0.437-2.7-1.096-0.704-0.66-0.6-1.856-1.22-2.591-0.529-0.624-1.241-1.688-2.026-1.419-0.739 0.254-0.411 1.468-0.616 2.202-0.206 0.733 0.049 1.799-0.617 2.202-0.647 0.392-1.549-0.123-2.25-0.418-0.844-0.357-1.62-0.912-2.23-1.58z" fill="#000"/>
<path d="m192.04 161.58c-0.851-0.139-1.761 0.686-2.112 1.449-0.2 0.434 0.018 0.966 0.17 1.417 0.28 0.832 0.671 1.692 1.336 2.282 0.48 0.428 1.126 0.802 1.778 0.789 1.191-0.025 2.252-0.852 3.181-1.573 0.883-0.685 1.401-1.723 2.165-2.531 0.764-0.809 1.502-1.664 2.413-2.313 0.571-0.407 1.21-0.733 1.875-0.964 0.663-0.23 1.874 0.248 2.07-0.408 0.136-0.46-0.609-0.83-1.075-0.989-0.908-0.31-1.955-0.027-2.881 0.235-0.858 0.243-1.6 0.776-2.376 1.208-0.739 0.411-1.406 0.941-2.167 1.314-0.64 0.315-1.286 0.72-2.002 0.772-0.476 0.035-0.94-0.178-1.395-0.316-0.336-0.101-0.703-0.163-0.98-0.372z" fill="#000"/>
<path d="m185.69 148.18c-2.593 0.231-4.934-0.977-5.227-2.699s1.571-3.305 4.165-3.537c2.594-0.231 4.933 0.977 5.227 2.699 0.293 1.722-1.571 3.306-4.165 3.537z" fill="#000"/>
<path d="m185.18 182.47c0.452-0.282-4.04-7.854-10.035-16.914-5.995-9.058-11.222-16.174-11.675-15.892s4.039 7.854 10.034 16.914c5.995 9.058 11.222 16.174 11.676 15.892z" fill="#DF7126"/>
<path d="m167.6 183.56c3.002-2.36 1.952-8.437-2.344-13.574-4.297-5.136-10.213-7.386-13.215-5.026-3.001 2.36-1.951 8.438 2.346 13.574 4.296 5.136 10.212 7.387 13.213 5.026z" fill="#fff" opacity=".317"/>
</svg>
